<?xml version="1.0" encoding="utf-8" standalone="no"?>
<!DOCTYPE svg PUBLIC "-//W3C//DTD SVG 1.1//EN"
  "http://www.w3.org/Graphics/SVG/1.1/DTD/svg11.dtd">
<svg xmlns:xlink="http://www.w3.org/1999/xlink" width="460.8pt" height="345.6pt" viewBox="0 0 460.8 345.6" xmlns="http://www.w3.org/2000/svg" version="1.1">
 <metadata>
  <rdf:RDF xmlns:dc="http://purl.org/dc/elements/1.1/" xmlns:cc="http://creativecommons.org/ns#" xmlns:rdf="http://www.w3.org/1999/02/22-rdf-syntax-ns#">
   <cc:Work>
    <dc:type rdf:resource="http://purl.org/dc/dcmitype/StillImage"/>
    <dc:date>2026-05-10T22:14:04.762268</dc:date>
    <dc:format>image/svg+xml</dc:format>
    <dc:creator>
     <cc:Agent>
      <dc:title>Matplotlib v3.10.8, https://matplotlib.org/</dc:title>
     </cc:Agent>
    </dc:creator>
   </cc:Work>
  </rdf:RDF>
 </metadata>
 <defs>
  <style type="text/css">*{stroke-linejoin: round; stroke-linecap: butt}</style>
 </defs>
 <g id="figure_1">
  <g id="patch_1">
   <path d="M 0 345.6 
L 460.8 345.6 
L 460.8 0 
L 0 0 
z
" style="fill: #ffffff"/>
  </g>
  <g id="axes_1">
   <g id="patch_2">
    <path d="M 88.641391 307.584 
L 383.678609 307.584 
L 383.678609 41.472 
L 88.641391 41.472 
z
" style="fill: #ffffff"/>
   </g>
   <g id="patch_3">
    <path d="M 102.052174 53.568 
L 123.088696 53.568 
L 123.088696 74.604522 
L 102.052174 74.604522 
z
" clip-path="url(#p1d597eacd4)" style="fill: #add8e6; opacity: 0.5; stroke: #0000ff; stroke-width: 0.1; stroke-linejoin: miter"/>
   </g>
   <g id="patch_4">
    <path d="M 123.088696 53.568 
L 144.125217 53.568 
L 144.125217 74.604522 
L 123.088696 74.604522 
z
" clip-path="url(#p1d597eacd4)" style="fill: #add8e6; opacity: 0.5; stroke: #0000ff; stroke-width: 0.1; stroke-linejoin: miter"/>
   </g>
   <g id="patch_5">
    <path d="M 144.125217 53.568 
L 165.161739 53.568 
L 165.161739 74.604522 
L 144.125217 74.604522 
z
" clip-path="url(#p1d597eacd4)" style="fill: #add8e6; opacity: 0.5; stroke: #0000ff; stroke-width: 0.1; stroke-linejoin: miter"/>
   </g>
   <g id="patch_6">
    <path d="M 165.161739 53.568 
L 186.198261 53.568 
L 186.198261 74.604522 
L 165.161739 74.604522 
z
" clip-path="url(#p1d597eacd4)" style="fill: #add8e6; opacity: 0.5; stroke: #0000ff; stroke-width: 0.1; stroke-linejoin: miter"/>
   </g>
   <g id="patch_7">
    <path d="M 186.198261 53.568 
L 207.234783 53.568 
L 207.234783 74.604522 
L 186.198261 74.604522 
z
" clip-path="url(#p1d597eacd4)" style="fill: #add8e6; opacity: 0.5; stroke: #0000ff; stroke-width: 0.1; stroke-linejoin: miter"/>
   </g>
   <g id="patch_8">
    <path d="M 207.234783 53.568 
L 228.271304 53.568 
L 228.271304 74.604522 
L 207.234783 74.604522 
z
" clip-path="url(#p1d597eacd4)" style="fill: #add8e6; opacity: 0.5; stroke: #0000ff; stroke-width: 0.1; stroke-linejoin: miter"/>
   </g>
   <g id="patch_9">
    <path d="M 228.271304 53.568 
L 249.307826 53.568 
L 249.307826 74.604522 
L 228.271304 74.604522 
z
" clip-path="url(#p1d597eacd4)" style="fill: #add8e6; opacity: 0.5; stroke: #0000ff; stroke-width: 0.1; stroke-linejoin: miter"/>
   </g>
   <g id="patch_10">
    <path d="M 133.606957 74.604522 
L 154.643478 74.604522 
L 154.643478 95.641043 
L 133.606957 95.641043 
z
" clip-path="url(#p1d597eacd4)" style="fill: #add8e6; opacity: 0.5; stroke: #0000ff; stroke-width: 0.1; stroke-linejoin: miter"/>
   </g>
   <g id="patch_11">
    <path d="M 154.643478 74.604522 
L 175.68 74.604522 
L 175.68 95.641043 
L 154.643478 95.641043 
z
" clip-path="url(#p1d597eacd4)" style="fill: #add8e6; opacity: 0.5; stroke: #0000ff; stroke-width: 0.1; stroke-linejoin: miter"/>
   </g>
   <g id="patch_12">
    <path d="M 175.68 74.604522 
L 196.716522 74.604522 
L 196.716522 95.641043 
L 175.68 95.641043 
z
" clip-path="url(#p1d597eacd4)" style="fill: #add8e6; opacity: 0.5; stroke: #0000ff; stroke-width: 0.1; stroke-linejoin: miter"/>
   </g>
   <g id="patch_13">
    <path d="M 196.716522 74.604522 
L 217.753043 74.604522 
L 217.753043 95.641043 
L 196.716522 95.641043 
z
" clip-path="url(#p1d597eacd4)" style="fill: #add8e6; opacity: 0.5; stroke: #0000ff; stroke-width: 0.1; stroke-linejoin: miter"/>
   </g>
   <g id="patch_14">
    <path d="M 217.753043 74.604522 
L 238.789565 74.604522 
L 238.789565 95.641043 
L 217.753043 95.641043 
z
" clip-path="url(#p1d597eacd4)" style="fill: #add8e6; opacity: 0.5; stroke: #0000ff; stroke-width: 0.1; stroke-linejoin: miter"/>
   </g>
   <g id="patch_15">
    <path d="M 238.789565 74.604522 
L 259.826087 74.604522 
L 259.826087 95.641043 
L 238.789565 95.641043 
z
" clip-path="url(#p1d597eacd4)" style="fill: #add8e6; opacity: 0.5; stroke: #0000ff; stroke-width: 0.1; stroke-linejoin: miter"/>
   </g>
   <g id="patch_16">
    <path d="M 138.866087 95.641043 
L 159.902609 95.641043 
L 159.902609 116.677565 
L 138.866087 116.677565 
z
" clip-path="url(#p1d597eacd4)" style="fill: #add8e6; opacity: 0.5; stroke: #0000ff; stroke-width: 0.1; stroke-linejoin: miter"/>
   </g>
   <g id="patch_17">
    <path d="M 159.902609 95.641043 
L 180.93913 95.641043 
L 180.93913 116.677565 
L 159.902609 116.677565 
z
" clip-path="url(#p1d597eacd4)" style="fill: #add8e6; opacity: 0.5; stroke: #0000ff; stroke-width: 0.1; stroke-linejoin: miter"/>
   </g>
   <g id="patch_18">
    <path d="M 180.93913 95.641043 
L 201.975652 95.641043 
L 201.975652 116.677565 
L 180.93913 116.677565 
z
" clip-path="url(#p1d597eacd4)" style="fill: #add8e6; opacity: 0.5; stroke: #0000ff; stroke-width: 0.1; stroke-linejoin: miter"/>
   </g>
   <g id="patch_19">
    <path d="M 201.975652 95.641043 
L 223.012174 95.641043 
L 223.012174 116.677565 
L 201.975652 116.677565 
z
" clip-path="url(#p1d597eacd4)" style="fill: #add8e6; opacity: 0.5; stroke: #0000ff; stroke-width: 0.1; stroke-linejoin: miter"/>
   </g>
   <g id="patch_20">
    <path d="M 223.012174 95.641043 
L 244.048696 95.641043 
L 244.048696 116.677565 
L 223.012174 116.677565 
z
" clip-path="url(#p1d597eacd4)" style="fill: #add8e6; opacity: 0.5; stroke: #0000ff; stroke-width: 0.1; stroke-linejoin: miter"/>
   </g>
   <g id="patch_21">
    <path d="M 244.048696 95.641043 
L 265.085217 95.641043 
L 265.085217 116.677565 
L 244.048696 116.677565 
z
" clip-path="url(#p1d597eacd4)" style="fill: #add8e6; opacity: 0.5; stroke: #0000ff; stroke-width: 0.1; stroke-linejoin: miter"/>
   </g>
   <g id="patch_22">
    <path d="M 349.231304 95.641043 
L 370.267826 95.641043 
L 370.267826 116.677565 
L 349.231304 116.677565 
z
" clip-path="url(#p1d597eacd4)" style="fill: #add8e6; opacity: 0.5; stroke: #0000ff; stroke-width: 0.1; stroke-linejoin: miter"/>
   </g>
   <g id="patch_23">
    <path d="M 102.052174 116.677565 
L 149.384348 116.677565 
L 149.384348 137.714087 
L 102.052174 137.714087 
z
" clip-path="url(#p1d597eacd4)" style="fill: #add8e6; opacity: 0.5; stroke: #0000ff; stroke-width: 0.1; stroke-linejoin: miter"/>
   </g>
   <g id="patch_24">
    <path d="M 149.384348 116.677565 
L 170.42087 116.677565 
L 170.42087 137.714087 
L 149.384348 137.714087 
z
" clip-path="url(#p1d597eacd4)" style="fill: #add8e6; opacity: 0.5; stroke: #0000ff; stroke-width: 0.1; stroke-linejoin: miter"/>
   </g>
   <g id="patch_25">
    <path d="M 170.42087 116.677565 
L 191.457391 116.677565 
L 191.457391 137.714087 
L 170.42087 137.714087 
z
" clip-path="url(#p1d597eacd4)" style="fill: #add8e6; opacity: 0.5; stroke: #0000ff; stroke-width: 0.1; stroke-linejoin: miter"/>
   </g>
   <g id="patch_26">
    <path d="M 191.457391 116.677565 
L 212.493913 116.677565 
L 212.493913 137.714087 
L 191.457391 137.714087 
z
" clip-path="url(#p1d597eacd4)" style="fill: #add8e6; opacity: 0.5; stroke: #0000ff; stroke-width: 0.1; stroke-linejoin: miter"/>
   </g>
   <g id="patch_27">
    <path d="M 212.493913 116.677565 
L 233.530435 116.677565 
L 233.530435 137.714087 
L 212.493913 137.714087 
z
" clip-path="url(#p1d597eacd4)" style="fill: #add8e6; opacity: 0.5; stroke: #0000ff; stroke-width: 0.1; stroke-linejoin: miter"/>
   </g>
   <g id="patch_28">
    <path d="M 233.530435 116.677565 
L 254.566957 116.677565 
L 254.566957 137.714087 
L 233.530435 137.714087 
z
" clip-path="url(#p1d597eacd4)" style="fill: #add8e6; opacity: 0.5; stroke: #0000ff; stroke-width: 0.1; stroke-linejoin: miter"/>
   </g>
   <g id="patch_29">
    <path d="M 180.93913 137.714087 
L 307.158261 137.714087 
L 307.158261 158.750609 
L 180.93913 158.750609 
z
" clip-path="url(#p1d597eacd4)" style="fill: #add8e6; opacity: 0.5; stroke: #0000ff; stroke-width: 0.1; stroke-linejoin: miter"/>
   </g>
   <g id="patch_30">
    <path d="M 102.052174 190.305391 
L 123.088696 190.305391 
L 123.088696 211.341913 
L 102.052174 211.341913 
z
" clip-path="url(#p1d597eacd4)" style="fill: #add8e6; opacity: 0.5; stroke: #0000ff; stroke-width: 0.1; stroke-linejoin: miter"/>
   </g>
   <g id="patch_31">
    <path d="M 123.088696 190.305391 
L 144.125217 190.305391 
L 144.125217 211.341913 
L 123.088696 211.341913 
z
" clip-path="url(#p1d597eacd4)" style="fill: #add8e6; opacity: 0.5; stroke: #0000ff; stroke-width: 0.1; stroke-linejoin: miter"/>
   </g>
   <g id="patch_32">
    <path d="M 144.125217 190.305391 
L 165.161739 190.305391 
L 165.161739 211.341913 
L 144.125217 211.341913 
z
" clip-path="url(#p1d597eacd4)" style="fill: #add8e6; opacity: 0.5; stroke: #0000ff; stroke-width: 0.1; stroke-linejoin: miter"/>
   </g>
   <g id="patch_33">
    <path d="M 165.161739 190.305391 
L 186.198261 190.305391 
L 186.198261 211.341913 
L 165.161739 211.341913 
z
" clip-path="url(#p1d597eacd4)" style="fill: #add8e6; opacity: 0.5; stroke: #0000ff; stroke-width: 0.1; stroke-linejoin: miter"/>
   </g>
   <g id="patch_34">
    <path d="M 186.198261 190.305391 
L 207.234783 190.305391 
L 207.234783 211.341913 
L 186.198261 211.341913 
z
" clip-path="url(#p1d597eacd4)" style="fill: #add8e6; opacity: 0.5; stroke: #0000ff; stroke-width: 0.1; stroke-linejoin: miter"/>
   </g>
   <g id="patch_35">
    <path d="M 207.234783 190.305391 
L 228.271304 190.305391 
L 228.271304 211.341913 
L 207.234783 211.341913 
z
" clip-path="url(#p1d597eacd4)" style="fill: #add8e6; opacity: 0.5; stroke: #0000ff; stroke-width: 0.1; stroke-linejoin: miter"/>
   </g>
   <g id="patch_36">
    <path d="M 228.271304 190.305391 
L 249.307826 190.305391 
L 249.307826 211.341913 
L 228.271304 211.341913 
z
" clip-path="url(#p1d597eacd4)" style="fill: #add8e6; opacity: 0.5; stroke: #0000ff; stroke-width: 0.1; stroke-linejoin: miter"/>
   </g>
   <g id="patch_37">
    <path d="M 133.606957 211.341913 
L 154.643478 211.341913 
L 154.643478 232.378435 
L 133.606957 232.378435 
z
" clip-path="url(#p1d597eacd4)" style="fill: #add8e6; opacity: 0.5; stroke: #0000ff; stroke-width: 0.1; stroke-linejoin: miter"/>
   </g>
   <g id="patch_38">
    <path d="M 154.643478 211.341913 
L 175.68 211.341913 
L 175.68 232.378435 
L 154.643478 232.378435 
z
" clip-path="url(#p1d597eacd4)" style="fill: #add8e6; opacity: 0.5; stroke: #0000ff; stroke-width: 0.1; stroke-linejoin: miter"/>
   </g>
   <g id="patch_39">
    <path d="M 175.68 211.341913 
L 196.716522 211.341913 
L 196.716522 232.378435 
L 175.68 232.378435 
z
" clip-path="url(#p1d597eacd4)" style="fill: #add8e6; opacity: 0.5; stroke: #0000ff; stroke-width: 0.1; stroke-linejoin: miter"/>
   </g>
   <g id="patch_40">
    <path d="M 196.716522 211.341913 
L 217.753043 211.341913 
L 217.753043 232.378435 
L 196.716522 232.378435 
z
" clip-path="url(#p1d597eacd4)" style="fill: #add8e6; opacity: 0.5; stroke: #0000ff; stroke-width: 0.1; stroke-linejoin: miter"/>
   </g>
   <g id="patch_41">
    <path d="M 217.753043 211.341913 
L 238.789565 211.341913 
L 238.789565 232.378435 
L 217.753043 232.378435 
z
" clip-path="url(#p1d597eacd4)" style="fill: #add8e6; opacity: 0.5; stroke: #0000ff; stroke-width: 0.1; stroke-linejoin: miter"/>
   </g>
   <g id="patch_42">
    <path d="M 238.789565 211.341913 
L 259.826087 211.341913 
L 259.826087 232.378435 
L 238.789565 232.378435 
z
" clip-path="url(#p1d597eacd4)" style="fill: #add8e6; opacity: 0.5; stroke: #0000ff; stroke-width: 0.1; stroke-linejoin: miter"/>
   </g>
   <g id="patch_43">
    <path d="M 138.866087 232.378435 
L 159.902609 232.378435 
L 159.902609 253.414957 
L 138.866087 253.414957 
z
" clip-path="url(#p1d597eacd4)" style="fill: #add8e6; opacity: 0.5; stroke: #0000ff; stroke-width: 0.1; stroke-linejoin: miter"/>
   </g>
   <g id="patch_44">
    <path d="M 159.902609 232.378435 
L 180.93913 232.378435 
L 180.93913 253.414957 
L 159.902609 253.414957 
z
" clip-path="url(#p1d597eacd4)" style="fill: #add8e6; opacity: 0.5; stroke: #0000ff; stroke-width: 0.1; stroke-linejoin: miter"/>
   </g>
   <g id="patch_45">
    <path d="M 180.93913 232.378435 
L 201.975652 232.378435 
L 201.975652 253.414957 
L 180.93913 253.414957 
z
" clip-path="url(#p1d597eacd4)" style="fill: #add8e6; opacity: 0.5; stroke: #0000ff; stroke-width: 0.1; stroke-linejoin: miter"/>
   </g>
   <g id="patch_46">
    <path d="M 201.975652 232.378435 
L 223.012174 232.378435 
L 223.012174 253.414957 
L 201.975652 253.414957 
z
" clip-path="url(#p1d597eacd4)" style="fill: #add8e6; opacity: 0.5; stroke: #0000ff; stroke-width: 0.1; stroke-linejoin: miter"/>
   </g>
   <g id="patch_47">
    <path d="M 223.012174 232.378435 
L 244.048696 232.378435 
L 244.048696 253.414957 
L 223.012174 253.414957 
z
" clip-path="url(#p1d597eacd4)" style="fill: #add8e6; opacity: 0.5; stroke: #0000ff; stroke-width: 0.1; stroke-linejoin: miter"/>
   </g>
   <g id="patch_48">
    <path d="M 244.048696 232.378435 
L 265.085217 232.378435 
L 265.085217 253.414957 
L 244.048696 253.414957 
z
" clip-path="url(#p1d597eacd4)" style="fill: #add8e6; opacity: 0.5; stroke: #0000ff; stroke-width: 0.1; stroke-linejoin: miter"/>
   </g>
   <g id="patch_49">
    <path d="M 349.231304 232.378435 
L 370.267826 232.378435 
L 370.267826 253.414957 
L 349.231304 253.414957 
z
" clip-path="url(#p1d597eacd4)" style="fill: #add8e6; opacity: 0.5; stroke: #0000ff; stroke-width: 0.1; stroke-linejoin: miter"/>
   </g>
   <g id="patch_50">
    <path d="M 102.052174 253.414957 
L 149.384348 253.414957 
L 149.384348 274.451478 
L 102.052174 274.451478 
z
" clip-path="url(#p1d597eacd4)" style="fill: #add8e6; opacity: 0.5; stroke: #0000ff; stroke-width: 0.1; stroke-linejoin: miter"/>
   </g>
   <g id="patch_51">
    <path d="M 149.384348 253.414957 
L 170.42087 253.414957 
L 170.42087 274.451478 
L 149.384348 274.451478 
z
" clip-path="url(#p1d597eacd4)" style="fill: #add8e6; opacity: 0.5; stroke: #0000ff; stroke-width: 0.1; stroke-linejoin: miter"/>
   </g>
   <g id="patch_52">
    <path d="M 170.42087 253.414957 
L 191.457391 253.414957 
L 191.457391 274.451478 
L 170.42087 274.451478 
z
" clip-path="url(#p1d597eacd4)" style="fill: #add8e6; opacity: 0.5; stroke: #0000ff; stroke-width: 0.1; stroke-linejoin: miter"/>
   </g>
   <g id="patch_53">
    <path d="M 191.457391 253.414957 
L 212.493913 253.414957 
L 212.493913 274.451478 
L 191.457391 274.451478 
z
" clip-path="url(#p1d597eacd4)" style="fill: #add8e6; opacity: 0.5; stroke: #0000ff; stroke-width: 0.1; stroke-linejoin: miter"/>
   </g>
   <g id="patch_54">
    <path d="M 212.493913 253.414957 
L 233.530435 253.414957 
L 233.530435 274.451478 
L 212.493913 274.451478 
z
" clip-path="url(#p1d597eacd4)" style="fill: #add8e6; opacity: 0.5; stroke: #0000ff; stroke-width: 0.1; stroke-linejoin: miter"/>
   </g>
   <g id="patch_55">
    <path d="M 233.530435 253.414957 
L 254.566957 253.414957 
L 254.566957 274.451478 
L 233.530435 274.451478 
z
" clip-path="url(#p1d597eacd4)" style="fill: #add8e6; opacity: 0.5; stroke: #0000ff; stroke-width: 0.1; stroke-linejoin: miter"/>
   </g>
   <g id="patch_56">
    <path d="M 180.93913 274.451478 
L 307.158261 274.451478 
L 307.158261 295.488 
L 180.93913 295.488 
z
" clip-path="url(#p1d597eacd4)" style="fill: #add8e6; opacity: 0.5; stroke: #0000ff; stroke-width: 0.1; stroke-linejoin: miter"/>
   </g>
   <g id="matplotlib.axis_1">
    <g id="xtick_1">
     <g id="line2d_1">
      <defs>
       <path id="mc86a8be7c2" d="M 0 0 
L 0 3.5 
" style="stroke: #000000; stroke-width: 0.8"/>
      </defs>
      <g>
       <use xlink:href="#mc86a8be7c2" x="102.052174" y="307.584" style="stroke: #000000; stroke-width: 0.8"/>
      </g>
     </g>
     <g id="text_1">
      <!-- 0 -->
      <g transform="translate(98.870924 322.182437) scale(0.1 -0.1)">
       <defs>
        <path id="DejaVuSans-30" d="M 2034 4250 
Q 1547 4250 1301 3770 
Q 1056 3291 1056 2328 
Q 1056 1369 1301 889 
Q 1547 409 2034 409 
Q 2525 409 2770 889 
Q 3016 1369 3016 2328 
Q 3016 3291 2770 3770 
Q 2525 4250 2034 4250 
z
M 2034 4750 
Q 2819 4750 3233 4129 
Q 3647 3509 3647 2328 
Q 3647 1150 3233 529 
Q 2819 -91 2034 -91 
Q 1250 -91 836 529 
Q 422 1150 422 2328 
Q 422 3509 836 4129 
Q 1250 4750 2034 4750 
z
" transform="scale(0.015625)"/>
       </defs>
       <use xlink:href="#DejaVuSans-30"/>
      </g>
     </g>
    </g>
    <g id="xtick_2">
     <g id="line2d_2">
      <g>
       <use xlink:href="#mc86a8be7c2" x="144.125217" y="307.584" style="stroke: #000000; stroke-width: 0.8"/>
      </g>
     </g>
     <g id="text_2">
      <!-- 2 -->
      <g transform="translate(140.943967 322.182437) scale(0.1 -0.1)">
       <defs>
        <path id="DejaVuSans-32" d="M 1228 531 
L 3431 531 
L 3431 0 
L 469 0 
L 469 531 
Q 828 903 1448 1529 
Q 2069 2156 2228 2338 
Q 2531 2678 2651 2914 
Q 2772 3150 2772 3378 
Q 2772 3750 2511 3984 
Q 2250 4219 1831 4219 
Q 1534 4219 1204 4116 
Q 875 4013 500 3803 
L 500 4441 
Q 881 4594 1212 4672 
Q 1544 4750 1819 4750 
Q 2544 4750 2975 4387 
Q 3406 4025 3406 3419 
Q 3406 3131 3298 2873 
Q 3191 2616 2906 2266 
Q 2828 2175 2409 1742 
Q 1991 1309 1228 531 
z
" transform="scale(0.015625)"/>
       </defs>
       <use xlink:href="#DejaVuSans-32"/>
      </g>
     </g>
    </g>
    <g id="xtick_3">
     <g id="line2d_3">
      <g>
       <use xlink:href="#mc86a8be7c2" x="186.198261" y="307.584" style="stroke: #000000; stroke-width: 0.8"/>
      </g>
     </g>
     <g id="text_3">
      <!-- 4 -->
      <g transform="translate(183.017011 322.182437) scale(0.1 -0.1)">
       <defs>
        <path id="DejaVuSans-34" d="M 2419 4116 
L 825 1625 
L 2419 1625 
L 2419 4116 
z
M 2253 4666 
L 3047 4666 
L 3047 1625 
L 3713 1625 
L 3713 1100 
L 3047 1100 
L 3047 0 
L 2419 0 
L 2419 1100 
L 313 1100 
L 313 1709 
L 2253 4666 
z
" transform="scale(0.015625)"/>
       </defs>
       <use xlink:href="#DejaVuSans-34"/>
      </g>
     </g>
    </g>
    <g id="xtick_4">
     <g id="line2d_4">
      <g>
       <use xlink:href="#mc86a8be7c2" x="228.271304" y="307.584" style="stroke: #000000; stroke-width: 0.8"/>
      </g>
     </g>
     <g id="text_4">
      <!-- 6 -->
      <g transform="translate(225.090054 322.182437) scale(0.1 -0.1)">
       <defs>
        <path id="DejaVuSans-36" d="M 2113 2584 
Q 1688 2584 1439 2293 
Q 1191 2003 1191 1497 
Q 1191 994 1439 701 
Q 1688 409 2113 409 
Q 2538 409 2786 701 
Q 3034 994 3034 1497 
Q 3034 2003 2786 2293 
Q 2538 2584 2113 2584 
z
M 3366 4563 
L 3366 3988 
Q 3128 4100 2886 4159 
Q 2644 4219 2406 4219 
Q 1781 4219 1451 3797 
Q 1122 3375 1075 2522 
Q 1259 2794 1537 2939 
Q 1816 3084 2150 3084 
Q 2853 3084 3261 2657 
Q 3669 2231 3669 1497 
Q 3669 778 3244 343 
Q 2819 -91 2113 -91 
Q 1303 -91 875 529 
Q 447 1150 447 2328 
Q 447 3434 972 4092 
Q 1497 4750 2381 4750 
Q 2619 4750 2861 4703 
Q 3103 4656 3366 4563 
z
" transform="scale(0.015625)"/>
       </defs>
       <use xlink:href="#DejaVuSans-36"/>
      </g>
     </g>
    </g>
    <g id="xtick_5">
     <g id="line2d_5">
      <g>
       <use xlink:href="#mc86a8be7c2" x="270.344348" y="307.584" style="stroke: #000000; stroke-width: 0.8"/>
      </g>
     </g>
     <g id="text_5">
      <!-- 8 -->
      <g transform="translate(267.163098 322.182437) scale(0.1 -0.1)">
       <defs>
        <path id="DejaVuSans-38" d="M 2034 2216 
Q 1584 2216 1326 1975 
Q 1069 1734 1069 1313 
Q 1069 891 1326 650 
Q 1584 409 2034 409 
Q 2484 409 2743 651 
Q 3003 894 3003 1313 
Q 3003 1734 2745 1975 
Q 2488 2216 2034 2216 
z
M 1403 2484 
Q 997 2584 770 2862 
Q 544 3141 544 3541 
Q 544 4100 942 4425 
Q 1341 4750 2034 4750 
Q 2731 4750 3128 4425 
Q 3525 4100 3525 3541 
Q 3525 3141 3298 2862 
Q 3072 2584 2669 2484 
Q 3125 2378 3379 2068 
Q 3634 1759 3634 1313 
Q 3634 634 3220 271 
Q 2806 -91 2034 -91 
Q 1263 -91 848 271 
Q 434 634 434 1313 
Q 434 1759 690 2068 
Q 947 2378 1403 2484 
z
M 1172 3481 
Q 1172 3119 1398 2916 
Q 1625 2713 2034 2713 
Q 2441 2713 2670 2916 
Q 2900 3119 2900 3481 
Q 2900 3844 2670 4047 
Q 2441 4250 2034 4250 
Q 1625 4250 1398 4047 
Q 1172 3844 1172 3481 
z
" transform="scale(0.015625)"/>
       </defs>
       <use xlink:href="#DejaVuSans-38"/>
      </g>
     </g>
    </g>
    <g id="xtick_6">
     <g id="line2d_6">
      <g>
       <use xlink:href="#mc86a8be7c2" x="312.417391" y="307.584" style="stroke: #000000; stroke-width: 0.8"/>
      </g>
     </g>
     <g id="text_6">
      <!-- 10 -->
      <g transform="translate(306.054891 322.182437) scale(0.1 -0.1)">
       <defs>
        <path id="DejaVuSans-31" d="M 794 531 
L 1825 531 
L 1825 4091 
L 703 3866 
L 703 4441 
L 1819 4666 
L 2450 4666 
L 2450 531 
L 3481 531 
L 3481 0 
L 794 0 
L 794 531 
z
" transform="scale(0.015625)"/>
       </defs>
       <use xlink:href="#DejaVuSans-31"/>
       <use xlink:href="#DejaVuSans-30" transform="translate(63.623047 0)"/>
      </g>
     </g>
    </g>
    <g id="xtick_7">
     <g id="line2d_7">
      <g>
       <use xlink:href="#mc86a8be7c2" x="354.490435" y="307.584" style="stroke: #000000; stroke-width: 0.8"/>
      </g>
     </g>
     <g id="text_7">
      <!-- 12 -->
      <g transform="translate(348.127935 322.182437) scale(0.1 -0.1)">
       <use xlink:href="#DejaVuSans-31"/>
       <use xlink:href="#DejaVuSans-32" transform="translate(63.623047 0)"/>
      </g>
     </g>
    </g>
   </g>
   <g id="matplotlib.axis_2">
    <g id="ytick_1">
     <g id="line2d_8">
      <defs>
       <path id="m10a73dd562" d="M 0 0 
L -3.5 0 
" style="stroke: #000000; stroke-width: 0.8"/>
      </defs>
      <g>
       <use xlink:href="#m10a73dd562" x="88.641391" y="53.568" style="stroke: #000000; stroke-width: 0.8"/>
      </g>
     </g>
     <g id="text_8">
      <!-- 0 -->
      <g transform="translate(75.278891 57.367219) scale(0.1 -0.1)">
       <use xlink:href="#DejaVuSans-30"/>
      </g>
     </g>
    </g>
    <g id="ytick_2">
     <g id="line2d_9">
      <g>
       <use xlink:href="#m10a73dd562" x="88.641391" y="95.641043" style="stroke: #000000; stroke-width: 0.8"/>
      </g>
     </g>
     <g id="text_9">
      <!-- 2 -->
      <g transform="translate(75.278891 99.440262) scale(0.1 -0.1)">
       <use xlink:href="#DejaVuSans-32"/>
      </g>
     </g>
    </g>
    <g id="ytick_3">
     <g id="line2d_10">
      <g>
       <use xlink:href="#m10a73dd562" x="88.641391" y="137.714087" style="stroke: #000000; stroke-width: 0.8"/>
      </g>
     </g>
     <g id="text_10">
      <!-- 4 -->
      <g transform="translate(75.278891 141.513306) scale(0.1 -0.1)">
       <use xlink:href="#DejaVuSans-34"/>
      </g>
     </g>
    </g>
    <g id="ytick_4">
     <g id="line2d_11">
      <g>
       <use xlink:href="#m10a73dd562" x="88.641391" y="179.78713" style="stroke: #000000; stroke-width: 0.8"/>
      </g>
     </g>
     <g id="text_11">
      <!-- 6 -->
      <g transform="translate(75.278891 183.586349) scale(0.1 -0.1)">
       <use xlink:href="#DejaVuSans-36"/>
      </g>
     </g>
    </g>
    <g id="ytick_5">
     <g id="line2d_12">
      <g>
       <use xlink:href="#m10a73dd562" x="88.641391" y="221.860174" style="stroke: #000000; stroke-width: 0.8"/>
      </g>
     </g>
     <g id="text_12">
      <!-- 8 -->
      <g transform="translate(75.278891 225.659393) scale(0.1 -0.1)">
       <use xlink:href="#DejaVuSans-38"/>
      </g>
     </g>
    </g>
    <g id="ytick_6">
     <g id="line2d_13">
      <g>
       <use xlink:href="#m10a73dd562" x="88.641391" y="263.933217" style="stroke: #000000; stroke-width: 0.8"/>
      </g>
     </g>
     <g id="text_13">
      <!-- 10 -->
      <g transform="translate(68.916391 267.732436) scale(0.1 -0.1)">
       <use xlink:href="#DejaVuSans-31"/>
       <use xlink:href="#DejaVuSans-30" transform="translate(63.623047 0)"/>
      </g>
     </g>
    </g>
    <g id="ytick_7">
     <g id="line2d_14">
      <g>
       <use xlink:href="#m10a73dd562" x="88.641391" y="306.006261" style="stroke: #000000; stroke-width: 0.8"/>
      </g>
     </g>
     <g id="text_14">
      <!-- 12 -->
      <g transform="translate(68.916391 309.80548) scale(0.1 -0.1)">
       <use xlink:href="#DejaVuSans-31"/>
       <use xlink:href="#DejaVuSans-32" transform="translate(63.623047 0)"/>
      </g>
     </g>
    </g>
   </g>
   <g id="patch_57">
    <path d="M 88.641391 307.584 
L 88.641391 41.472 
" style="fill: none; stroke: #000000; stroke-width: 0.8; stroke-linejoin: miter; stroke-linecap: square"/>
   </g>
   <g id="patch_58">
    <path d="M 383.678609 307.584 
L 383.678609 41.472 
" style="fill: none; stroke: #000000; stroke-width: 0.8; stroke-linejoin: miter; stroke-linecap: square"/>
   </g>
   <g id="patch_59">
    <path d="M 88.641391 307.584 
L 383.678609 307.584 
" style="fill: none; stroke: #000000; stroke-width: 0.8; stroke-linejoin: miter; stroke-linecap: square"/>
   </g>
   <g id="patch_60">
    <path d="M 88.641391 41.472 
L 383.678609 41.472 
" style="fill: none; stroke: #000000; stroke-width: 0.8; stroke-linejoin: miter; stroke-linecap: square"/>
   </g>
   <g id="text_15">
    <!-- ` -->
    <g transform="translate(109.570435 67.397511) scale(0.12 -0.12)">
     <defs>
      <path id="DejaVuSans-Bold-60" d="M 1178 5119 
L 2059 3944 
L 1447 3944 
L 294 5119 
L 1178 5119 
z
" transform="scale(0.015625)"/>
     </defs>
     <use xlink:href="#DejaVuSans-Bold-60"/>
    </g>
   </g>
   <g id="text_16">
    <!-- 1 -->
    <g transform="translate(129.432269 67.397511) scale(0.12 -0.12)">
     <defs>
      <path id="DejaVuSans-Bold-31" d="M 750 831 
L 1813 831 
L 1813 3847 
L 722 3622 
L 722 4441 
L 1806 4666 
L 2950 4666 
L 2950 831 
L 4013 831 
L 4013 0 
L 750 0 
L 750 831 
z
" transform="scale(0.015625)"/>
     </defs>
     <use xlink:href="#DejaVuSans-Bold-31"/>
    </g>
   </g>
   <g id="text_17">
    <!-- 2 -->
    <g transform="translate(150.468791 67.397511) scale(0.12 -0.12)">
     <defs>
      <path id="DejaVuSans-Bold-32" d="M 1844 884 
L 3897 884 
L 3897 0 
L 506 0 
L 506 884 
L 2209 2388 
Q 2438 2594 2547 2791 
Q 2656 2988 2656 3200 
Q 2656 3528 2436 3728 
Q 2216 3928 1850 3928 
Q 1569 3928 1234 3808 
Q 900 3688 519 3450 
L 519 4475 
Q 925 4609 1322 4679 
Q 1719 4750 2100 4750 
Q 2938 4750 3402 4381 
Q 3866 4013 3866 3353 
Q 3866 2972 3669 2642 
Q 3472 2313 2841 1759 
L 1844 884 
z
" transform="scale(0.015625)"/>
     </defs>
     <use xlink:href="#DejaVuSans-Bold-32"/>
    </g>
   </g>
   <g id="text_18">
    <!-- 3 -->
    <g transform="translate(171.505313 67.397511) scale(0.12 -0.12)">
     <defs>
      <path id="DejaVuSans-Bold-33" d="M 2981 2516 
Q 3453 2394 3698 2092 
Q 3944 1791 3944 1325 
Q 3944 631 3412 270 
Q 2881 -91 1863 -91 
Q 1503 -91 1142 -33 
Q 781 25 428 141 
L 428 1069 
Q 766 900 1098 814 
Q 1431 728 1753 728 
Q 2231 728 2486 893 
Q 2741 1059 2741 1369 
Q 2741 1688 2480 1852 
Q 2219 2016 1709 2016 
L 1228 2016 
L 1228 2791 
L 1734 2791 
Q 2188 2791 2409 2933 
Q 2631 3075 2631 3366 
Q 2631 3634 2415 3781 
Q 2200 3928 1806 3928 
Q 1516 3928 1219 3862 
Q 922 3797 628 3669 
L 628 4550 
Q 984 4650 1334 4700 
Q 1684 4750 2022 4750 
Q 2931 4750 3382 4451 
Q 3834 4153 3834 3553 
Q 3834 3144 3618 2883 
Q 3403 2622 2981 2516 
z
" transform="scale(0.015625)"/>
     </defs>
     <use xlink:href="#DejaVuSans-Bold-33"/>
    </g>
   </g>
   <g id="text_19">
    <!-- 4 -->
    <g transform="translate(192.541834 67.397511) scale(0.12 -0.12)">
     <defs>
      <path id="DejaVuSans-Bold-34" d="M 2356 3675 
L 1038 1722 
L 2356 1722 
L 2356 3675 
z
M 2156 4666 
L 3494 4666 
L 3494 1722 
L 4159 1722 
L 4159 850 
L 3494 850 
L 3494 0 
L 2356 0 
L 2356 850 
L 288 850 
L 288 1881 
L 2156 4666 
z
" transform="scale(0.015625)"/>
     </defs>
     <use xlink:href="#DejaVuSans-Bold-34"/>
    </g>
   </g>
   <g id="text_20">
    <!-- 5 -->
    <g transform="translate(213.578356 67.397511) scale(0.12 -0.12)">
     <defs>
      <path id="DejaVuSans-Bold-35" d="M 678 4666 
L 3669 4666 
L 3669 3781 
L 1638 3781 
L 1638 3059 
Q 1775 3097 1914 3117 
Q 2053 3138 2203 3138 
Q 3056 3138 3531 2711 
Q 4006 2284 4006 1522 
Q 4006 766 3489 337 
Q 2972 -91 2053 -91 
Q 1656 -91 1267 -14 
Q 878 63 494 219 
L 494 1166 
Q 875 947 1217 837 
Q 1559 728 1863 728 
Q 2300 728 2551 942 
Q 2803 1156 2803 1522 
Q 2803 1891 2551 2103 
Q 2300 2316 1863 2316 
Q 1603 2316 1309 2248 
Q 1016 2181 678 2041 
L 678 4666 
z
" transform="scale(0.015625)"/>
     </defs>
     <use xlink:href="#DejaVuSans-Bold-35"/>
    </g>
   </g>
   <g id="text_21">
    <!-- 6 -->
    <g transform="translate(234.614878 67.397511) scale(0.12 -0.12)">
     <defs>
      <path id="DejaVuSans-Bold-36" d="M 2316 2303 
Q 2000 2303 1842 2098 
Q 1684 1894 1684 1484 
Q 1684 1075 1842 870 
Q 2000 666 2316 666 
Q 2634 666 2792 870 
Q 2950 1075 2950 1484 
Q 2950 1894 2792 2098 
Q 2634 2303 2316 2303 
z
M 3803 4544 
L 3803 3681 
Q 3506 3822 3243 3889 
Q 2981 3956 2731 3956 
Q 2194 3956 1894 3657 
Q 1594 3359 1544 2772 
Q 1750 2925 1990 3001 
Q 2231 3078 2516 3078 
Q 3231 3078 3670 2659 
Q 4109 2241 4109 1563 
Q 4109 813 3618 361 
Q 3128 -91 2303 -91 
Q 1394 -91 895 523 
Q 397 1138 397 2266 
Q 397 3422 980 4083 
Q 1563 4744 2578 4744 
Q 2900 4744 3203 4694 
Q 3506 4644 3803 4544 
z
" transform="scale(0.015625)"/>
     </defs>
     <use xlink:href="#DejaVuSans-Bold-36"/>
    </g>
   </g>
   <g id="text_22">
    <!-- q -->
    <g transform="translate(139.83053 88.434033) scale(0.12 -0.12)">
     <defs>
      <path id="DejaVuSans-Bold-71" d="M 2181 2772 
Q 1825 2772 1636 2509 
Q 1447 2247 1447 1747 
Q 1447 1247 1636 984 
Q 1825 722 2181 722 
Q 2541 722 2730 984 
Q 2919 1247 2919 1747 
Q 2919 2247 2730 2509 
Q 2541 2772 2181 2772 
z
M 2919 506 
Q 2688 197 2409 53 
Q 2131 -91 1766 -91 
Q 1119 -91 703 423 
Q 288 938 288 1747 
Q 288 2556 703 3067 
Q 1119 3578 1766 3578 
Q 2131 3578 2409 3434 
Q 2688 3291 2919 2981 
L 2919 3500 
L 4044 3500 
L 4044 -1331 
L 2919 -1331 
L 2919 506 
z
" transform="scale(0.015625)"/>
     </defs>
     <use xlink:href="#DejaVuSans-Bold-71"/>
    </g>
   </g>
   <g id="text_23">
    <!-- w -->
    <g transform="translate(159.618302 88.434033) scale(0.12 -0.12)">
     <defs>
      <path id="DejaVuSans-Bold-77" d="M 225 3500 
L 1313 3500 
L 1900 1088 
L 2491 3500 
L 3425 3500 
L 4013 1113 
L 4603 3500 
L 5691 3500 
L 4769 0 
L 3547 0 
L 2956 2406 
L 2369 0 
L 1147 0 
L 225 3500 
z
" transform="scale(0.015625)"/>
     </defs>
     <use xlink:href="#DejaVuSans-Bold-77"/>
    </g>
   </g>
   <g id="text_24">
    <!-- e -->
    <g transform="translate(182.128573 88.434033) scale(0.12 -0.12)">
     <defs>
      <path id="DejaVuSans-Bold-65" d="M 4031 1759 
L 4031 1441 
L 1416 1441 
Q 1456 1047 1700 850 
Q 1944 653 2381 653 
Q 2734 653 3104 758 
Q 3475 863 3866 1075 
L 3866 213 
Q 3469 63 3072 -14 
Q 2675 -91 2278 -91 
Q 1328 -91 801 392 
Q 275 875 275 1747 
Q 275 2603 792 3093 
Q 1309 3584 2216 3584 
Q 3041 3584 3536 3087 
Q 4031 2591 4031 1759 
z
M 2881 2131 
Q 2881 2450 2695 2645 
Q 2509 2841 2209 2841 
Q 1884 2841 1681 2658 
Q 1478 2475 1428 2131 
L 2881 2131 
z
" transform="scale(0.015625)"/>
     </defs>
     <use xlink:href="#DejaVuSans-Bold-65"/>
    </g>
   </g>
   <g id="text_25">
    <!-- r -->
    <g transform="translate(204.276033 88.434033) scale(0.12 -0.12)">
     <defs>
      <path id="DejaVuSans-Bold-72" d="M 3138 2547 
Q 2991 2616 2845 2648 
Q 2700 2681 2553 2681 
Q 2122 2681 1889 2404 
Q 1656 2128 1656 1613 
L 1656 0 
L 538 0 
L 538 3500 
L 1656 3500 
L 1656 2925 
Q 1872 3269 2151 3426 
Q 2431 3584 2822 3584 
Q 2878 3584 2943 3579 
Q 3009 3575 3134 3559 
L 3138 2547 
z
" transform="scale(0.015625)"/>
     </defs>
     <use xlink:href="#DejaVuSans-Bold-72"/>
    </g>
   </g>
   <g id="text_26">
    <!-- t -->
    <g transform="translate(225.403492 88.434033) scale(0.12 -0.12)">
     <defs>
      <path id="DejaVuSans-Bold-74" d="M 1759 4494 
L 1759 3500 
L 2913 3500 
L 2913 2700 
L 1759 2700 
L 1759 1216 
Q 1759 972 1856 886 
Q 1953 800 2241 800 
L 2816 800 
L 2816 0 
L 1856 0 
Q 1194 0 917 276 
Q 641 553 641 1216 
L 641 2700 
L 84 2700 
L 84 3500 
L 641 3500 
L 641 4494 
L 1759 4494 
z
" transform="scale(0.015625)"/>
     </defs>
     <use xlink:href="#DejaVuSans-Bold-74"/>
    </g>
   </g>
   <g id="text_27">
    <!-- y -->
    <g transform="translate(245.396576 88.340283) scale(0.12 -0.12)">
     <defs>
      <path id="DejaVuSans-Bold-79" d="M 78 3500 
L 1197 3500 
L 2138 1125 
L 2938 3500 
L 4056 3500 
L 2584 -331 
Q 2363 -916 2067 -1148 
Q 1772 -1381 1288 -1381 
L 641 -1381 
L 641 -647 
L 991 -647 
Q 1275 -647 1404 -556 
Q 1534 -466 1606 -231 
L 1638 -134 
L 78 3500 
z
" transform="scale(0.015625)"/>
     </defs>
     <use xlink:href="#DejaVuSans-Bold-79"/>
    </g>
   </g>
   <g id="text_28">
    <!-- a -->
    <g transform="translate(145.335285 109.470554) scale(0.12 -0.12)">
     <defs>
      <path id="DejaVuSans-Bold-61" d="M 2106 1575 
Q 1756 1575 1579 1456 
Q 1403 1338 1403 1106 
Q 1403 894 1545 773 
Q 1688 653 1941 653 
Q 2256 653 2472 879 
Q 2688 1106 2688 1447 
L 2688 1575 
L 2106 1575 
z
M 3816 1997 
L 3816 0 
L 2688 0 
L 2688 519 
Q 2463 200 2181 54 
Q 1900 -91 1497 -91 
Q 953 -91 614 226 
Q 275 544 275 1050 
Q 275 1666 698 1953 
Q 1122 2241 2028 2241 
L 2688 2241 
L 2688 2328 
Q 2688 2594 2478 2717 
Q 2269 2841 1825 2841 
Q 1466 2841 1156 2769 
Q 847 2697 581 2553 
L 581 3406 
Q 941 3494 1303 3539 
Q 1666 3584 2028 3584 
Q 2975 3584 3395 3211 
Q 3816 2838 3816 1997 
z
" transform="scale(0.015625)"/>
     </defs>
     <use xlink:href="#DejaVuSans-Bold-61"/>
    </g>
   </g>
   <g id="text_29">
    <!-- s -->
    <g transform="translate(166.849932 109.470554) scale(0.12 -0.12)">
     <defs>
      <path id="DejaVuSans-Bold-73" d="M 3272 3391 
L 3272 2541 
Q 2913 2691 2578 2766 
Q 2244 2841 1947 2841 
Q 1628 2841 1473 2761 
Q 1319 2681 1319 2516 
Q 1319 2381 1436 2309 
Q 1553 2238 1856 2203 
L 2053 2175 
Q 2913 2066 3209 1816 
Q 3506 1566 3506 1031 
Q 3506 472 3093 190 
Q 2681 -91 1863 -91 
Q 1516 -91 1145 -36 
Q 775 19 384 128 
L 384 978 
Q 719 816 1070 734 
Q 1422 653 1784 653 
Q 2113 653 2278 743 
Q 2444 834 2444 1013 
Q 2444 1163 2330 1236 
Q 2216 1309 1875 1350 
L 1678 1375 
Q 931 1469 631 1722 
Q 331 1975 331 2491 
Q 331 3047 712 3315 
Q 1094 3584 1881 3584 
Q 2191 3584 2531 3537 
Q 2872 3491 3272 3391 
z
" transform="scale(0.015625)"/>
     </defs>
     <use xlink:href="#DejaVuSans-Bold-73"/>
    </g>
   </g>
   <g id="text_30">
    <!-- d -->
    <g transform="translate(187.162704 109.470554) scale(0.12 -0.12)">
     <defs>
      <path id="DejaVuSans-Bold-64" d="M 2919 2988 
L 2919 4863 
L 4044 4863 
L 4044 0 
L 2919 0 
L 2919 506 
Q 2688 197 2409 53 
Q 2131 -91 1766 -91 
Q 1119 -91 703 423 
Q 288 938 288 1747 
Q 288 2556 703 3070 
Q 1119 3584 1766 3584 
Q 2128 3584 2408 3439 
Q 2688 3294 2919 2988 
z
M 2181 722 
Q 2541 722 2730 984 
Q 2919 1247 2919 1747 
Q 2919 2247 2730 2509 
Q 2541 2772 2181 2772 
Q 1825 2772 1636 2509 
Q 1447 2247 1447 1747 
Q 1447 1247 1636 984 
Q 1825 722 2181 722 
z
" transform="scale(0.015625)"/>
     </defs>
     <use xlink:href="#DejaVuSans-Bold-64"/>
    </g>
   </g>
   <g id="text_31">
    <!-- f -->
    <g transform="translate(209.883913 109.470554) scale(0.12 -0.12)">
     <defs>
      <path id="DejaVuSans-Bold-66" d="M 2841 4863 
L 2841 4128 
L 2222 4128 
Q 1984 4128 1890 4042 
Q 1797 3956 1797 3744 
L 1797 3500 
L 2753 3500 
L 2753 2700 
L 1797 2700 
L 1797 0 
L 678 0 
L 678 2700 
L 122 2700 
L 122 3500 
L 678 3500 
L 678 3744 
Q 678 4316 997 4589 
Q 1316 4863 1984 4863 
L 2841 4863 
z
" transform="scale(0.015625)"/>
     </defs>
     <use xlink:href="#DejaVuSans-Bold-66"/>
    </g>
   </g>
   <g id="text_32">
    <!-- g -->
    <g transform="translate(229.235747 109.376804) scale(0.12 -0.12)">
     <defs>
      <path id="DejaVuSans-Bold-67" d="M 2919 594 
Q 2688 288 2409 144 
Q 2131 0 1766 0 
Q 1125 0 706 504 
Q 288 1009 288 1791 
Q 288 2575 706 3076 
Q 1125 3578 1766 3578 
Q 2131 3578 2409 3434 
Q 2688 3291 2919 2981 
L 2919 3500 
L 4044 3500 
L 4044 353 
Q 4044 -491 3511 -936 
Q 2978 -1381 1966 -1381 
Q 1638 -1381 1331 -1331 
Q 1025 -1281 716 -1178 
L 716 -306 
Q 1009 -475 1290 -558 
Q 1572 -641 1856 -641 
Q 2406 -641 2662 -400 
Q 2919 -159 2919 353 
L 2919 594 
z
M 2181 2772 
Q 1834 2772 1640 2515 
Q 1447 2259 1447 1791 
Q 1447 1309 1634 1061 
Q 1822 813 2181 813 
Q 2531 813 2725 1069 
Q 2919 1325 2919 1791 
Q 2919 2259 2725 2515 
Q 2531 2772 2181 2772 
z
" transform="scale(0.015625)"/>
     </defs>
     <use xlink:href="#DejaVuSans-Bold-67"/>
    </g>
   </g>
   <g id="text_33">
    <!-- h -->
    <g transform="translate(250.295707 109.470554) scale(0.12 -0.12)">
     <defs>
      <path id="DejaVuSans-Bold-68" d="M 4056 2131 
L 4056 0 
L 2931 0 
L 2931 347 
L 2931 1625 
Q 2931 2084 2911 2256 
Q 2891 2428 2841 2509 
Q 2775 2619 2662 2680 
Q 2550 2741 2406 2741 
Q 2056 2741 1856 2470 
Q 1656 2200 1656 1722 
L 1656 0 
L 538 0 
L 538 4863 
L 1656 4863 
L 1656 2988 
Q 1909 3294 2193 3439 
Q 2478 3584 2822 3584 
Q 3428 3584 3742 3212 
Q 4056 2841 4056 2131 
z
" transform="scale(0.015625)"/>
     </defs>
     <use xlink:href="#DejaVuSans-Bold-68"/>
    </g>
   </g>
   <g id="text_34">
    <!-- bspc -->
    <g transform="translate(344.032378 109.470554) scale(0.12 -0.12)">
     <defs>
      <path id="DejaVuSans-Bold-62" d="M 2400 722 
Q 2759 722 2948 984 
Q 3138 1247 3138 1747 
Q 3138 2247 2948 2509 
Q 2759 2772 2400 2772 
Q 2041 2772 1848 2508 
Q 1656 2244 1656 1747 
Q 1656 1250 1848 986 
Q 2041 722 2400 722 
z
M 1656 2988 
Q 1888 3294 2169 3439 
Q 2450 3584 2816 3584 
Q 3463 3584 3878 3070 
Q 4294 2556 4294 1747 
Q 4294 938 3878 423 
Q 3463 -91 2816 -91 
Q 2450 -91 2169 54 
Q 1888 200 1656 506 
L 1656 0 
L 538 0 
L 538 4863 
L 1656 4863 
L 1656 2988 
z
" transform="scale(0.015625)"/>
      <path id="DejaVuSans-Bold-70" d="M 1656 506 
L 1656 -1331 
L 538 -1331 
L 538 3500 
L 1656 3500 
L 1656 2988 
Q 1888 3294 2169 3439 
Q 2450 3584 2816 3584 
Q 3463 3584 3878 3070 
Q 4294 2556 4294 1747 
Q 4294 938 3878 423 
Q 3463 -91 2816 -91 
Q 2450 -91 2169 54 
Q 1888 200 1656 506 
z
M 2400 2772 
Q 2041 2772 1848 2508 
Q 1656 2244 1656 1747 
Q 1656 1250 1848 986 
Q 2041 722 2400 722 
Q 2759 722 2948 984 
Q 3138 1247 3138 1747 
Q 3138 2247 2948 2509 
Q 2759 2772 2400 2772 
z
" transform="scale(0.015625)"/>
      <path id="DejaVuSans-Bold-63" d="M 3366 3391 
L 3366 2478 
Q 3138 2634 2908 2709 
Q 2678 2784 2431 2784 
Q 1963 2784 1702 2511 
Q 1441 2238 1441 1747 
Q 1441 1256 1702 982 
Q 1963 709 2431 709 
Q 2694 709 2930 787 
Q 3166 866 3366 1019 
L 3366 103 
Q 3103 6 2833 -42 
Q 2563 -91 2291 -91 
Q 1344 -91 809 395 
Q 275 881 275 1747 
Q 275 2613 809 3098 
Q 1344 3584 2291 3584 
Q 2566 3584 2833 3536 
Q 3100 3488 3366 3391 
z
" transform="scale(0.015625)"/>
     </defs>
     <use xlink:href="#DejaVuSans-Bold-62"/>
     <use xlink:href="#DejaVuSans-Bold-73" transform="translate(71.582031 0)"/>
     <use xlink:href="#DejaVuSans-Bold-70" transform="translate(131.103516 0)"/>
     <use xlink:href="#DejaVuSans-Bold-63" transform="translate(202.685547 0)"/>
    </g>
   </g>
   <g id="text_35">
    <!-- lsft -->
    <g transform="translate(127.970827 130.507076) scale(0.12 -0.12)">
     <defs>
      <path id="DejaVuSans-Bold-6c" d="M 538 4863 
L 1656 4863 
L 1656 0 
L 538 0 
L 538 4863 
z
" transform="scale(0.015625)"/>
     </defs>
     <use xlink:href="#DejaVuSans-Bold-6c"/>
     <use xlink:href="#DejaVuSans-Bold-73" transform="translate(34.277344 0)"/>
     <use xlink:href="#DejaVuSans-Bold-66" transform="translate(93.798828 0)"/>
     <use xlink:href="#DejaVuSans-Bold-74" transform="translate(137.304688 0)"/>
    </g>
   </g>
   <g id="text_36">
    <!-- z -->
    <g transform="translate(156.410421 130.507076) scale(0.12 -0.12)">
     <defs>
      <path id="DejaVuSans-Bold-7a" d="M 366 3500 
L 3419 3500 
L 3419 2719 
L 1575 800 
L 3419 800 
L 3419 0 
L 288 0 
L 288 781 
L 2131 2700 
L 366 2700 
L 366 3500 
z
" transform="scale(0.015625)"/>
     </defs>
     <use xlink:href="#DejaVuSans-Bold-7a"/>
    </g>
   </g>
   <g id="text_37">
    <!-- x -->
    <g transform="translate(177.06913 130.507076) scale(0.12 -0.12)">
     <defs>
      <path id="DejaVuSans-Bold-78" d="M 1422 1791 
L 159 3500 
L 1344 3500 
L 2059 2463 
L 2784 3500 
L 3969 3500 
L 2706 1797 
L 4031 0 
L 2847 0 
L 2059 1106 
L 1281 0 
L 97 0 
L 1422 1791 
z
" transform="scale(0.015625)"/>
     </defs>
     <use xlink:href="#DejaVuSans-Bold-78"/>
    </g>
   </g>
   <g id="text_38">
    <!-- c -->
    <g transform="translate(198.418777 130.507076) scale(0.12 -0.12)">
     <use xlink:href="#DejaVuSans-Bold-63"/>
    </g>
   </g>
   <g id="text_39">
    <!-- v -->
    <g transform="translate(219.100924 130.507076) scale(0.12 -0.12)">
     <defs>
      <path id="DejaVuSans-Bold-76" d="M 97 3500 
L 1216 3500 
L 2088 1081 
L 2956 3500 
L 4078 3500 
L 2700 0 
L 1472 0 
L 97 3500 
z
" transform="scale(0.015625)"/>
     </defs>
     <use xlink:href="#DejaVuSans-Bold-76"/>
    </g>
   </g>
   <g id="text_40">
    <!-- b -->
    <g transform="translate(239.754008 130.507076) scale(0.12 -0.12)">
     <use xlink:href="#DejaVuSans-Bold-62"/>
    </g>
   </g>
   <g id="text_41">
    <!-- spc -->
    <g transform="translate(211.589674 151.543598) scale(0.12 -0.12)">
     <use xlink:href="#DejaVuSans-Bold-73"/>
     <use xlink:href="#DejaVuSans-Bold-70" transform="translate(59.521484 0)"/>
     <use xlink:href="#DejaVuSans-Bold-63" transform="translate(131.103516 0)"/>
    </g>
   </g>
   <g id="text_42">
    <!-- ` -->
    <g transform="translate(109.570435 204.134902) scale(0.12 -0.12)">
     <use xlink:href="#DejaVuSans-Bold-60"/>
    </g>
   </g>
   <g id="text_43">
    <!-- 1 -->
    <g transform="translate(129.432269 204.134902) scale(0.12 -0.12)">
     <use xlink:href="#DejaVuSans-Bold-31"/>
    </g>
   </g>
   <g id="text_44">
    <!-- 2 -->
    <g transform="translate(150.468791 204.134902) scale(0.12 -0.12)">
     <use xlink:href="#DejaVuSans-Bold-32"/>
    </g>
   </g>
   <g id="text_45">
    <!-- 3 -->
    <g transform="translate(171.505313 204.134902) scale(0.12 -0.12)">
     <use xlink:href="#DejaVuSans-Bold-33"/>
    </g>
   </g>
   <g id="text_46">
    <!-- 4 -->
    <g transform="translate(192.541834 204.134902) scale(0.12 -0.12)">
     <use xlink:href="#DejaVuSans-Bold-34"/>
    </g>
   </g>
   <g id="text_47">
    <!-- 5 -->
    <g transform="translate(213.578356 204.134902) scale(0.12 -0.12)">
     <use xlink:href="#DejaVuSans-Bold-35"/>
    </g>
   </g>
   <g id="text_48">
    <!-- 6 -->
    <g transform="translate(234.614878 204.134902) scale(0.12 -0.12)">
     <use xlink:href="#DejaVuSans-Bold-36"/>
    </g>
   </g>
   <g id="text_49">
    <!-- q -->
    <g transform="translate(139.83053 225.171424) scale(0.12 -0.12)">
     <use xlink:href="#DejaVuSans-Bold-71"/>
    </g>
   </g>
   <g id="text_50">
    <!-- w -->
    <g transform="translate(159.618302 225.171424) scale(0.12 -0.12)">
     <use xlink:href="#DejaVuSans-Bold-77"/>
    </g>
   </g>
   <g id="text_51">
    <!-- e -->
    <g transform="translate(182.128573 225.171424) scale(0.12 -0.12)">
     <use xlink:href="#DejaVuSans-Bold-65"/>
    </g>
   </g>
   <g id="text_52">
    <!-- r -->
    <g transform="translate(204.276033 225.171424) scale(0.12 -0.12)">
     <use xlink:href="#DejaVuSans-Bold-72"/>
    </g>
   </g>
   <g id="text_53">
    <!-- t -->
    <g transform="translate(225.403492 225.171424) scale(0.12 -0.12)">
     <use xlink:href="#DejaVuSans-Bold-74"/>
    </g>
   </g>
   <g id="text_54">
    <!-- y -->
    <g transform="translate(245.396576 225.077674) scale(0.12 -0.12)">
     <use xlink:href="#DejaVuSans-Bold-79"/>
    </g>
   </g>
   <g id="text_55">
    <!-- a -->
    <g transform="translate(145.335285 246.207946) scale(0.12 -0.12)">
     <use xlink:href="#DejaVuSans-Bold-61"/>
    </g>
   </g>
   <g id="text_56">
    <!-- s -->
    <g transform="translate(166.849932 246.207946) scale(0.12 -0.12)">
     <use xlink:href="#DejaVuSans-Bold-73"/>
    </g>
   </g>
   <g id="text_57">
    <!-- d -->
    <g transform="translate(187.162704 246.207946) scale(0.12 -0.12)">
     <use xlink:href="#DejaVuSans-Bold-64"/>
    </g>
   </g>
   <g id="text_58">
    <!-- f -->
    <g transform="translate(209.883913 246.207946) scale(0.12 -0.12)">
     <use xlink:href="#DejaVuSans-Bold-66"/>
    </g>
   </g>
   <g id="text_59">
    <!-- g -->
    <g transform="translate(229.235747 246.114196) scale(0.12 -0.12)">
     <use xlink:href="#DejaVuSans-Bold-67"/>
    </g>
   </g>
   <g id="text_60">
    <!-- h -->
    <g transform="translate(250.295707 246.207946) scale(0.12 -0.12)">
     <use xlink:href="#DejaVuSans-Bold-68"/>
    </g>
   </g>
   <g id="text_61">
    <!-- bspc -->
    <g transform="translate(344.032378 246.207946) scale(0.12 -0.12)">
     <use xlink:href="#DejaVuSans-Bold-62"/>
     <use xlink:href="#DejaVuSans-Bold-73" transform="translate(71.582031 0)"/>
     <use xlink:href="#DejaVuSans-Bold-70" transform="translate(131.103516 0)"/>
     <use xlink:href="#DejaVuSans-Bold-63" transform="translate(202.685547 0)"/>
    </g>
   </g>
   <g id="text_62">
    <!-- lsft -->
    <g transform="translate(127.970827 267.244467) scale(0.12 -0.12)">
     <use xlink:href="#DejaVuSans-Bold-6c"/>
     <use xlink:href="#DejaVuSans-Bold-73" transform="translate(34.277344 0)"/>
     <use xlink:href="#DejaVuSans-Bold-66" transform="translate(93.798828 0)"/>
     <use xlink:href="#DejaVuSans-Bold-74" transform="translate(137.304688 0)"/>
    </g>
   </g>
   <g id="text_63">
    <!-- z -->
    <g transform="translate(156.410421 267.244467) scale(0.12 -0.12)">
     <use xlink:href="#DejaVuSans-Bold-7a"/>
    </g>
   </g>
   <g id="text_64">
    <!-- x -->
    <g transform="translate(177.06913 267.244467) scale(0.12 -0.12)">
     <use xlink:href="#DejaVuSans-Bold-78"/>
    </g>
   </g>
   <g id="text_65">
    <!-- c -->
    <g transform="translate(198.418777 267.244467) scale(0.12 -0.12)">
     <use xlink:href="#DejaVuSans-Bold-63"/>
    </g>
   </g>
   <g id="text_66">
    <!-- v -->
    <g transform="translate(219.100924 267.244467) scale(0.12 -0.12)">
     <use xlink:href="#DejaVuSans-Bold-76"/>
    </g>
   </g>
   <g id="text_67">
    <!-- b -->
    <g transform="translate(239.754008 267.244467) scale(0.12 -0.12)">
     <use xlink:href="#DejaVuSans-Bold-62"/>
    </g>
   </g>
   <g id="text_68">
    <!-- 4 -->
    <g transform="translate(218.837486 288.280989) scale(0.12 -0.12)">
     <use xlink:href="#DejaVuSans-Bold-34"/>
    </g>
   </g>
  </g>
 </g>
 <defs>
  <clipPath id="p1d597eacd4">
   <rect x="88.641391" y="41.472" width="295.037217" height="266.112"/>
  </clipPath>
 </defs>
</svg>
