<?xml version="1.0" encoding="utf-8" standalone="no"?>
<!DOCTYPE svg PUBLIC "-//W3C//DTD SVG 1.1//EN"
  "http://www.w3.org/Graphics/SVG/1.1/DTD/svg11.dtd">
<svg xmlns:xlink="http://www.w3.org/1999/xlink" width="460.8pt" height="345.6pt" viewBox="0 0 460.8 345.6" xmlns="http://www.w3.org/2000/svg" version="1.1">
 <metadata>
  <rdf:RDF xmlns:dc="http://purl.org/dc/elements/1.1/" xmlns:cc="http://creativecommons.org/ns#" xmlns:rdf="http://www.w3.org/1999/02/22-rdf-syntax-ns#">
   <cc:Work>
    <dc:type rdf:resource="http://purl.org/dc/dcmitype/StillImage"/>
    <dc:date>2026-05-07T01:07:11.313562</dc:date>
    <dc:format>image/svg+xml</dc:format>
    <dc:creator>
     <cc:Agent>
      <dc:title>Matplotlib v3.10.8, https://matplotlib.org/</dc:title>
     </cc:Agent>
    </dc:creator>
   </cc:Work>
  </rdf:RDF>
 </metadata>
 <defs>
  <style type="text/css">*{stroke-linejoin: round; stroke-linecap: butt}</style>
 </defs>
 <g id="figure_1">
  <g id="patch_1">
   <path d="M 0 345.6 
L 460.8 345.6 
L 460.8 0 
L 0 0 
z
" style="fill: #ffffff"/>
  </g>
  <g id="axes_1">
   <g id="patch_2">
    <path d="M 57.6 266.097231 
L 414.72 266.097231 
L 414.72 82.958769 
L 57.6 82.958769 
z
" style="fill: #ffffff"/>
   </g>
   <g id="patch_3">
    <path d="M 107.130629 91.283245 
L 140.428531 91.283245 
L 140.428531 124.581147 
L 107.130629 124.581147 
z
" clip-path="url(#p6ae9a5de25)" style="fill: #add8e6; opacity: 0.5; stroke: #0000ff; stroke-width: 0.1; stroke-linejoin: miter"/>
   </g>
   <g id="patch_4">
    <path d="M 140.428531 91.283245 
L 173.726434 91.283245 
L 173.726434 124.581147 
L 140.428531 124.581147 
z
" clip-path="url(#p6ae9a5de25)" style="fill: #add8e6; opacity: 0.5; stroke: #0000ff; stroke-width: 0.1; stroke-linejoin: miter"/>
   </g>
   <g id="patch_5">
    <path d="M 173.726434 91.283245 
L 207.024336 91.283245 
L 207.024336 124.581147 
L 173.726434 124.581147 
z
" clip-path="url(#p6ae9a5de25)" style="fill: #add8e6; opacity: 0.5; stroke: #0000ff; stroke-width: 0.1; stroke-linejoin: miter"/>
   </g>
   <g id="patch_6">
    <path d="M 207.024336 91.283245 
L 240.322238 91.283245 
L 240.322238 124.581147 
L 207.024336 124.581147 
z
" clip-path="url(#p6ae9a5de25)" style="fill: #add8e6; opacity: 0.5; stroke: #0000ff; stroke-width: 0.1; stroke-linejoin: miter"/>
   </g>
   <g id="patch_7">
    <path d="M 240.322238 91.283245 
L 273.62014 91.283245 
L 273.62014 124.581147 
L 240.322238 124.581147 
z
" clip-path="url(#p6ae9a5de25)" style="fill: #add8e6; opacity: 0.5; stroke: #0000ff; stroke-width: 0.1; stroke-linejoin: miter"/>
   </g>
   <g id="patch_8">
    <path d="M 123.77958 124.581147 
L 157.077483 124.581147 
L 157.077483 157.879049 
L 123.77958 157.879049 
z
" clip-path="url(#p6ae9a5de25)" style="fill: #add8e6; opacity: 0.5; stroke: #0000ff; stroke-width: 0.1; stroke-linejoin: miter"/>
   </g>
   <g id="patch_9">
    <path d="M 157.077483 124.581147 
L 190.375385 124.581147 
L 190.375385 157.879049 
L 157.077483 157.879049 
z
" clip-path="url(#p6ae9a5de25)" style="fill: #add8e6; opacity: 0.5; stroke: #0000ff; stroke-width: 0.1; stroke-linejoin: miter"/>
   </g>
   <g id="patch_10">
    <path d="M 190.375385 124.581147 
L 223.673287 124.581147 
L 223.673287 157.879049 
L 190.375385 157.879049 
z
" clip-path="url(#p6ae9a5de25)" style="fill: #add8e6; opacity: 0.5; stroke: #0000ff; stroke-width: 0.1; stroke-linejoin: miter"/>
   </g>
   <g id="patch_11">
    <path d="M 223.673287 124.581147 
L 256.971189 124.581147 
L 256.971189 157.879049 
L 223.673287 157.879049 
z
" clip-path="url(#p6ae9a5de25)" style="fill: #add8e6; opacity: 0.5; stroke: #0000ff; stroke-width: 0.1; stroke-linejoin: miter"/>
   </g>
   <g id="patch_12">
    <path d="M 256.971189 124.581147 
L 290.269091 124.581147 
L 290.269091 157.879049 
L 256.971189 157.879049 
z
" clip-path="url(#p6ae9a5de25)" style="fill: #add8e6; opacity: 0.5; stroke: #0000ff; stroke-width: 0.1; stroke-linejoin: miter"/>
   </g>
   <g id="patch_13">
    <path d="M 73.832727 157.879049 
L 132.104056 157.879049 
L 132.104056 191.176951 
L 73.832727 191.176951 
z
" clip-path="url(#p6ae9a5de25)" style="fill: #add8e6; opacity: 0.5; stroke: #0000ff; stroke-width: 0.1; stroke-linejoin: miter"/>
   </g>
   <g id="patch_14">
    <path d="M 132.104056 157.879049 
L 165.401958 157.879049 
L 165.401958 191.176951 
L 132.104056 191.176951 
z
" clip-path="url(#p6ae9a5de25)" style="fill: #add8e6; opacity: 0.5; stroke: #0000ff; stroke-width: 0.1; stroke-linejoin: miter"/>
   </g>
   <g id="patch_15">
    <path d="M 165.401958 157.879049 
L 198.69986 157.879049 
L 198.69986 191.176951 
L 165.401958 191.176951 
z
" clip-path="url(#p6ae9a5de25)" style="fill: #add8e6; opacity: 0.5; stroke: #0000ff; stroke-width: 0.1; stroke-linejoin: miter"/>
   </g>
   <g id="patch_16">
    <path d="M 198.69986 157.879049 
L 231.997762 157.879049 
L 231.997762 191.176951 
L 198.69986 191.176951 
z
" clip-path="url(#p6ae9a5de25)" style="fill: #add8e6; opacity: 0.5; stroke: #0000ff; stroke-width: 0.1; stroke-linejoin: miter"/>
   </g>
   <g id="patch_17">
    <path d="M 231.997762 157.879049 
L 265.295664 157.879049 
L 265.295664 191.176951 
L 231.997762 191.176951 
z
" clip-path="url(#p6ae9a5de25)" style="fill: #add8e6; opacity: 0.5; stroke: #0000ff; stroke-width: 0.1; stroke-linejoin: miter"/>
   </g>
   <g id="patch_18">
    <path d="M 73.832727 191.176951 
L 107.130629 191.176951 
L 107.130629 224.474853 
L 73.832727 224.474853 
z
" clip-path="url(#p6ae9a5de25)" style="fill: #add8e6; opacity: 0.5; stroke: #0000ff; stroke-width: 0.1; stroke-linejoin: miter"/>
   </g>
   <g id="patch_19">
    <path d="M 198.69986 224.474853 
L 398.487273 224.474853 
L 398.487273 257.772755 
L 198.69986 257.772755 
z
" clip-path="url(#p6ae9a5de25)" style="fill: #add8e6; opacity: 0.5; stroke: #0000ff; stroke-width: 0.1; stroke-linejoin: miter"/>
   </g>
   <g id="matplotlib.axis_1">
    <g id="xtick_1">
     <g id="line2d_1">
      <defs>
       <path id="mf462f81cb1" d="M 0 0 
L 0 3.5 
" style="stroke: #000000; stroke-width: 0.8"/>
      </defs>
      <g>
       <use xlink:href="#mf462f81cb1" x="73.832727" y="266.097231" style="stroke: #000000; stroke-width: 0.8"/>
      </g>
     </g>
     <g id="text_1">
      <!-- 0 -->
      <g transform="translate(70.651477 280.695668) scale(0.1 -0.1)">
       <defs>
        <path id="DejaVuSans-30" d="M 2034 4250 
Q 1547 4250 1301 3770 
Q 1056 3291 1056 2328 
Q 1056 1369 1301 889 
Q 1547 409 2034 409 
Q 2525 409 2770 889 
Q 3016 1369 3016 2328 
Q 3016 3291 2770 3770 
Q 2525 4250 2034 4250 
z
M 2034 4750 
Q 2819 4750 3233 4129 
Q 3647 3509 3647 2328 
Q 3647 1150 3233 529 
Q 2819 -91 2034 -91 
Q 1250 -91 836 529 
Q 422 1150 422 2328 
Q 422 3509 836 4129 
Q 1250 4750 2034 4750 
z
" transform="scale(0.015625)"/>
       </defs>
       <use xlink:href="#DejaVuSans-30"/>
      </g>
     </g>
    </g>
    <g id="xtick_2">
     <g id="line2d_2">
      <g>
       <use xlink:href="#mf462f81cb1" x="140.428531" y="266.097231" style="stroke: #000000; stroke-width: 0.8"/>
      </g>
     </g>
     <g id="text_2">
      <!-- 2 -->
      <g transform="translate(137.247281 280.695668) scale(0.1 -0.1)">
       <defs>
        <path id="DejaVuSans-32" d="M 1228 531 
L 3431 531 
L 3431 0 
L 469 0 
L 469 531 
Q 828 903 1448 1529 
Q 2069 2156 2228 2338 
Q 2531 2678 2651 2914 
Q 2772 3150 2772 3378 
Q 2772 3750 2511 3984 
Q 2250 4219 1831 4219 
Q 1534 4219 1204 4116 
Q 875 4013 500 3803 
L 500 4441 
Q 881 4594 1212 4672 
Q 1544 4750 1819 4750 
Q 2544 4750 2975 4387 
Q 3406 4025 3406 3419 
Q 3406 3131 3298 2873 
Q 3191 2616 2906 2266 
Q 2828 2175 2409 1742 
Q 1991 1309 1228 531 
z
" transform="scale(0.015625)"/>
       </defs>
       <use xlink:href="#DejaVuSans-32"/>
      </g>
     </g>
    </g>
    <g id="xtick_3">
     <g id="line2d_3">
      <g>
       <use xlink:href="#mf462f81cb1" x="207.024336" y="266.097231" style="stroke: #000000; stroke-width: 0.8"/>
      </g>
     </g>
     <g id="text_3">
      <!-- 4 -->
      <g transform="translate(203.843086 280.695668) scale(0.1 -0.1)">
       <defs>
        <path id="DejaVuSans-34" d="M 2419 4116 
L 825 1625 
L 2419 1625 
L 2419 4116 
z
M 2253 4666 
L 3047 4666 
L 3047 1625 
L 3713 1625 
L 3713 1100 
L 3047 1100 
L 3047 0 
L 2419 0 
L 2419 1100 
L 313 1100 
L 313 1709 
L 2253 4666 
z
" transform="scale(0.015625)"/>
       </defs>
       <use xlink:href="#DejaVuSans-34"/>
      </g>
     </g>
    </g>
    <g id="xtick_4">
     <g id="line2d_4">
      <g>
       <use xlink:href="#mf462f81cb1" x="273.62014" y="266.097231" style="stroke: #000000; stroke-width: 0.8"/>
      </g>
     </g>
     <g id="text_4">
      <!-- 6 -->
      <g transform="translate(270.43889 280.695668) scale(0.1 -0.1)">
       <defs>
        <path id="DejaVuSans-36" d="M 2113 2584 
Q 1688 2584 1439 2293 
Q 1191 2003 1191 1497 
Q 1191 994 1439 701 
Q 1688 409 2113 409 
Q 2538 409 2786 701 
Q 3034 994 3034 1497 
Q 3034 2003 2786 2293 
Q 2538 2584 2113 2584 
z
M 3366 4563 
L 3366 3988 
Q 3128 4100 2886 4159 
Q 2644 4219 2406 4219 
Q 1781 4219 1451 3797 
Q 1122 3375 1075 2522 
Q 1259 2794 1537 2939 
Q 1816 3084 2150 3084 
Q 2853 3084 3261 2657 
Q 3669 2231 3669 1497 
Q 3669 778 3244 343 
Q 2819 -91 2113 -91 
Q 1303 -91 875 529 
Q 447 1150 447 2328 
Q 447 3434 972 4092 
Q 1497 4750 2381 4750 
Q 2619 4750 2861 4703 
Q 3103 4656 3366 4563 
z
" transform="scale(0.015625)"/>
       </defs>
       <use xlink:href="#DejaVuSans-36"/>
      </g>
     </g>
    </g>
    <g id="xtick_5">
     <g id="line2d_5">
      <g>
       <use xlink:href="#mf462f81cb1" x="340.215944" y="266.097231" style="stroke: #000000; stroke-width: 0.8"/>
      </g>
     </g>
     <g id="text_5">
      <!-- 8 -->
      <g transform="translate(337.034694 280.695668) scale(0.1 -0.1)">
       <defs>
        <path id="DejaVuSans-38" d="M 2034 2216 
Q 1584 2216 1326 1975 
Q 1069 1734 1069 1313 
Q 1069 891 1326 650 
Q 1584 409 2034 409 
Q 2484 409 2743 651 
Q 3003 894 3003 1313 
Q 3003 1734 2745 1975 
Q 2488 2216 2034 2216 
z
M 1403 2484 
Q 997 2584 770 2862 
Q 544 3141 544 3541 
Q 544 4100 942 4425 
Q 1341 4750 2034 4750 
Q 2731 4750 3128 4425 
Q 3525 4100 3525 3541 
Q 3525 3141 3298 2862 
Q 3072 2584 2669 2484 
Q 3125 2378 3379 2068 
Q 3634 1759 3634 1313 
Q 3634 634 3220 271 
Q 2806 -91 2034 -91 
Q 1263 -91 848 271 
Q 434 634 434 1313 
Q 434 1759 690 2068 
Q 947 2378 1403 2484 
z
M 1172 3481 
Q 1172 3119 1398 2916 
Q 1625 2713 2034 2713 
Q 2441 2713 2670 2916 
Q 2900 3119 2900 3481 
Q 2900 3844 2670 4047 
Q 2441 4250 2034 4250 
Q 1625 4250 1398 4047 
Q 1172 3844 1172 3481 
z
" transform="scale(0.015625)"/>
       </defs>
       <use xlink:href="#DejaVuSans-38"/>
      </g>
     </g>
    </g>
    <g id="xtick_6">
     <g id="line2d_6">
      <g>
       <use xlink:href="#mf462f81cb1" x="406.811748" y="266.097231" style="stroke: #000000; stroke-width: 0.8"/>
      </g>
     </g>
     <g id="text_6">
      <!-- 10 -->
      <g transform="translate(400.449248 280.695668) scale(0.1 -0.1)">
       <defs>
        <path id="DejaVuSans-31" d="M 794 531 
L 1825 531 
L 1825 4091 
L 703 3866 
L 703 4441 
L 1819 4666 
L 2450 4666 
L 2450 531 
L 3481 531 
L 3481 0 
L 794 0 
L 794 531 
z
" transform="scale(0.015625)"/>
       </defs>
       <use xlink:href="#DejaVuSans-31"/>
       <use xlink:href="#DejaVuSans-30" transform="translate(63.623047 0)"/>
      </g>
     </g>
    </g>
   </g>
   <g id="matplotlib.axis_2">
    <g id="ytick_1">
     <g id="line2d_7">
      <defs>
       <path id="m457521c9b0" d="M 0 0 
L -3.5 0 
" style="stroke: #000000; stroke-width: 0.8"/>
      </defs>
      <g>
       <use xlink:href="#m457521c9b0" x="57.6" y="91.283245" style="stroke: #000000; stroke-width: 0.8"/>
      </g>
     </g>
     <g id="text_7">
      <!-- 0 -->
      <g transform="translate(44.2375 95.082464) scale(0.1 -0.1)">
       <use xlink:href="#DejaVuSans-30"/>
      </g>
     </g>
    </g>
    <g id="ytick_2">
     <g id="line2d_8">
      <g>
       <use xlink:href="#m457521c9b0" x="57.6" y="124.581147" style="stroke: #000000; stroke-width: 0.8"/>
      </g>
     </g>
     <g id="text_8">
      <!-- 1 -->
      <g transform="translate(44.2375 128.380366) scale(0.1 -0.1)">
       <use xlink:href="#DejaVuSans-31"/>
      </g>
     </g>
    </g>
    <g id="ytick_3">
     <g id="line2d_9">
      <g>
       <use xlink:href="#m457521c9b0" x="57.6" y="157.879049" style="stroke: #000000; stroke-width: 0.8"/>
      </g>
     </g>
     <g id="text_9">
      <!-- 2 -->
      <g transform="translate(44.2375 161.678268) scale(0.1 -0.1)">
       <use xlink:href="#DejaVuSans-32"/>
      </g>
     </g>
    </g>
    <g id="ytick_4">
     <g id="line2d_10">
      <g>
       <use xlink:href="#m457521c9b0" x="57.6" y="191.176951" style="stroke: #000000; stroke-width: 0.8"/>
      </g>
     </g>
     <g id="text_10">
      <!-- 3 -->
      <g transform="translate(44.2375 194.97617) scale(0.1 -0.1)">
       <defs>
        <path id="DejaVuSans-33" d="M 2597 2516 
Q 3050 2419 3304 2112 
Q 3559 1806 3559 1356 
Q 3559 666 3084 287 
Q 2609 -91 1734 -91 
Q 1441 -91 1130 -33 
Q 819 25 488 141 
L 488 750 
Q 750 597 1062 519 
Q 1375 441 1716 441 
Q 2309 441 2620 675 
Q 2931 909 2931 1356 
Q 2931 1769 2642 2001 
Q 2353 2234 1838 2234 
L 1294 2234 
L 1294 2753 
L 1863 2753 
Q 2328 2753 2575 2939 
Q 2822 3125 2822 3475 
Q 2822 3834 2567 4026 
Q 2313 4219 1838 4219 
Q 1578 4219 1281 4162 
Q 984 4106 628 3988 
L 628 4550 
Q 988 4650 1302 4700 
Q 1616 4750 1894 4750 
Q 2613 4750 3031 4423 
Q 3450 4097 3450 3541 
Q 3450 3153 3228 2886 
Q 3006 2619 2597 2516 
z
" transform="scale(0.015625)"/>
       </defs>
       <use xlink:href="#DejaVuSans-33"/>
      </g>
     </g>
    </g>
    <g id="ytick_5">
     <g id="line2d_11">
      <g>
       <use xlink:href="#m457521c9b0" x="57.6" y="224.474853" style="stroke: #000000; stroke-width: 0.8"/>
      </g>
     </g>
     <g id="text_11">
      <!-- 4 -->
      <g transform="translate(44.2375 228.274072) scale(0.1 -0.1)">
       <use xlink:href="#DejaVuSans-34"/>
      </g>
     </g>
    </g>
    <g id="ytick_6">
     <g id="line2d_12">
      <g>
       <use xlink:href="#m457521c9b0" x="57.6" y="257.772755" style="stroke: #000000; stroke-width: 0.8"/>
      </g>
     </g>
     <g id="text_12">
      <!-- 5 -->
      <g transform="translate(44.2375 261.571974) scale(0.1 -0.1)">
       <defs>
        <path id="DejaVuSans-35" d="M 691 4666 
L 3169 4666 
L 3169 4134 
L 1269 4134 
L 1269 2991 
Q 1406 3038 1543 3061 
Q 1681 3084 1819 3084 
Q 2600 3084 3056 2656 
Q 3513 2228 3513 1497 
Q 3513 744 3044 326 
Q 2575 -91 1722 -91 
Q 1428 -91 1123 -41 
Q 819 9 494 109 
L 494 744 
Q 775 591 1075 516 
Q 1375 441 1709 441 
Q 2250 441 2565 725 
Q 2881 1009 2881 1497 
Q 2881 1984 2565 2268 
Q 2250 2553 1709 2553 
Q 1456 2553 1204 2497 
Q 953 2441 691 2322 
L 691 4666 
z
" transform="scale(0.015625)"/>
       </defs>
       <use xlink:href="#DejaVuSans-35"/>
      </g>
     </g>
    </g>
   </g>
   <g id="patch_20">
    <path d="M 57.6 266.097231 
L 57.6 82.958769 
" style="fill: none; stroke: #000000; stroke-width: 0.8; stroke-linejoin: miter; stroke-linecap: square"/>
   </g>
   <g id="patch_21">
    <path d="M 414.72 266.097231 
L 414.72 82.958769 
" style="fill: none; stroke: #000000; stroke-width: 0.8; stroke-linejoin: miter; stroke-linecap: square"/>
   </g>
   <g id="patch_22">
    <path d="M 57.6 266.097231 
L 414.72 266.097231 
" style="fill: none; stroke: #000000; stroke-width: 0.8; stroke-linejoin: miter; stroke-linecap: square"/>
   </g>
   <g id="patch_23">
    <path d="M 57.6 82.958769 
L 414.72 82.958769 
" style="fill: none; stroke: #000000; stroke-width: 0.8; stroke-linejoin: miter; stroke-linecap: square"/>
   </g>
   <g id="text_13">
    <!-- s -->
    <g transform="translate(153.506545 111.243446) scale(0.12 -0.12)">
     <defs>
      <path id="DejaVuSans-Bold-73" d="M 3272 3391 
L 3272 2541 
Q 2913 2691 2578 2766 
Q 2244 2841 1947 2841 
Q 1628 2841 1473 2761 
Q 1319 2681 1319 2516 
Q 1319 2381 1436 2309 
Q 1553 2238 1856 2203 
L 2053 2175 
Q 2913 2066 3209 1816 
Q 3506 1566 3506 1031 
Q 3506 472 3093 190 
Q 2681 -91 1863 -91 
Q 1516 -91 1145 -36 
Q 775 19 384 128 
L 384 978 
Q 719 816 1070 734 
Q 1422 653 1784 653 
Q 2113 653 2278 743 
Q 2444 834 2444 1013 
Q 2444 1163 2330 1236 
Q 2216 1309 1875 1350 
L 1678 1375 
Q 931 1469 631 1722 
Q 331 1975 331 2491 
Q 331 3047 712 3315 
Q 1094 3584 1881 3584 
Q 2191 3584 2531 3537 
Q 2872 3491 3272 3391 
z
" transform="scale(0.015625)"/>
     </defs>
     <use xlink:href="#DejaVuSans-Bold-73"/>
    </g>
   </g>
   <g id="text_14">
    <!-- y -->
    <g transform="translate(186.464135 111.149696) scale(0.12 -0.12)">
     <defs>
      <path id="DejaVuSans-Bold-79" d="M 78 3500 
L 1197 3500 
L 2138 1125 
L 2938 3500 
L 4056 3500 
L 2584 -331 
Q 2363 -916 2067 -1148 
Q 1772 -1381 1288 -1381 
L 641 -1381 
L 641 -647 
L 991 -647 
Q 1275 -647 1404 -556 
Q 1534 -466 1606 -231 
L 1638 -134 
L 78 3500 
z
" transform="scale(0.015625)"/>
     </defs>
     <use xlink:href="#DejaVuSans-Bold-79"/>
    </g>
   </g>
   <g id="text_15">
    <!-- a -->
    <g transform="translate(144.703944 177.83925) scale(0.12 -0.12)">
     <defs>
      <path id="DejaVuSans-Bold-61" d="M 2106 1575 
Q 1756 1575 1579 1456 
Q 1403 1338 1403 1106 
Q 1403 894 1545 773 
Q 1688 653 1941 653 
Q 2256 653 2472 879 
Q 2688 1106 2688 1447 
L 2688 1575 
L 2106 1575 
z
M 3816 1997 
L 3816 0 
L 2688 0 
L 2688 519 
Q 2463 200 2181 54 
Q 1900 -91 1497 -91 
Q 953 -91 614 226 
Q 275 544 275 1050 
Q 275 1666 698 1953 
Q 1122 2241 2028 2241 
L 2688 2241 
L 2688 2328 
Q 2688 2594 2478 2717 
Q 2269 2841 1825 2841 
Q 1466 2841 1156 2769 
Q 847 2697 581 2553 
L 581 3406 
Q 941 3494 1303 3539 
Q 1666 3584 2028 3584 
Q 2975 3584 3395 3211 
Q 3816 2838 3816 1997 
z
" transform="scale(0.015625)"/>
     </defs>
     <use xlink:href="#DejaVuSans-Bold-61"/>
    </g>
   </g>
   <g id="text_16">
    <!-- home -->
    <g transform="translate(96.739792 177.83925) scale(0.12 -0.12)">
     <defs>
      <path id="DejaVuSans-Bold-68" d="M 4056 2131 
L 4056 0 
L 2931 0 
L 2931 347 
L 2931 1625 
Q 2931 2084 2911 2256 
Q 2891 2428 2841 2509 
Q 2775 2619 2662 2680 
Q 2550 2741 2406 2741 
Q 2056 2741 1856 2470 
Q 1656 2200 1656 1722 
L 1656 0 
L 538 0 
L 538 4863 
L 1656 4863 
L 1656 2988 
Q 1909 3294 2193 3439 
Q 2478 3584 2822 3584 
Q 3428 3584 3742 3212 
Q 4056 2841 4056 2131 
z
" transform="scale(0.015625)"/>
      <path id="DejaVuSans-Bold-6f" d="M 2203 2784 
Q 1831 2784 1636 2517 
Q 1441 2250 1441 1747 
Q 1441 1244 1636 976 
Q 1831 709 2203 709 
Q 2569 709 2762 976 
Q 2956 1244 2956 1747 
Q 2956 2250 2762 2517 
Q 2569 2784 2203 2784 
z
M 2203 3584 
Q 3106 3584 3614 3096 
Q 4122 2609 4122 1747 
Q 4122 884 3614 396 
Q 3106 -91 2203 -91 
Q 1297 -91 786 396 
Q 275 884 275 1747 
Q 275 2609 786 3096 
Q 1297 3584 2203 3584 
z
" transform="scale(0.015625)"/>
      <path id="DejaVuSans-Bold-6d" d="M 3781 2919 
Q 3994 3244 4286 3414 
Q 4578 3584 4928 3584 
Q 5531 3584 5847 3212 
Q 6163 2841 6163 2131 
L 6163 0 
L 5038 0 
L 5038 1825 
Q 5041 1866 5042 1909 
Q 5044 1953 5044 2034 
Q 5044 2406 4934 2573 
Q 4825 2741 4581 2741 
Q 4263 2741 4089 2478 
Q 3916 2216 3909 1719 
L 3909 0 
L 2784 0 
L 2784 1825 
Q 2784 2406 2684 2573 
Q 2584 2741 2328 2741 
Q 2006 2741 1831 2477 
Q 1656 2213 1656 1722 
L 1656 0 
L 531 0 
L 531 3500 
L 1656 3500 
L 1656 2988 
Q 1863 3284 2130 3434 
Q 2397 3584 2719 3584 
Q 3081 3584 3359 3409 
Q 3638 3234 3781 2919 
z
" transform="scale(0.015625)"/>
      <path id="DejaVuSans-Bold-65" d="M 4031 1759 
L 4031 1441 
L 1416 1441 
Q 1456 1047 1700 850 
Q 1944 653 2381 653 
Q 2734 653 3104 758 
Q 3475 863 3866 1075 
L 3866 213 
Q 3469 63 3072 -14 
Q 2675 -91 2278 -91 
Q 1328 -91 801 392 
Q 275 875 275 1747 
Q 275 2603 792 3093 
Q 1309 3584 2216 3584 
Q 3041 3584 3536 3087 
Q 4031 2591 4031 1759 
z
M 2881 2131 
Q 2881 2450 2695 2645 
Q 2509 2841 2209 2841 
Q 1884 2841 1681 2658 
Q 1478 2475 1428 2131 
L 2881 2131 
z
" transform="scale(0.015625)"/>
     </defs>
     <use xlink:href="#DejaVuSans-Bold-68"/>
     <use xlink:href="#DejaVuSans-Bold-6f" transform="translate(71.191406 0)"/>
     <use xlink:href="#DejaVuSans-Bold-6d" transform="translate(139.892578 0)"/>
     <use xlink:href="#DejaVuSans-Bold-65" transform="translate(244.091797 0)"/>
    </g>
   </g>
   <g id="text_17">
    <!-- l -->
    <g transform="translate(213.291936 177.83925) scale(0.12 -0.12)">
     <defs>
      <path id="DejaVuSans-Bold-6c" d="M 538 4863 
L 1656 4863 
L 1656 0 
L 538 0 
L 538 4863 
z
" transform="scale(0.015625)"/>
     </defs>
     <use xlink:href="#DejaVuSans-Bold-6c"/>
    </g>
   </g>
   <g id="text_18">
    <!-- e -->
    <g transform="translate(202.954648 144.541348) scale(0.12 -0.12)">
     <use xlink:href="#DejaVuSans-Bold-65"/>
    </g>
   </g>
   <g id="text_19">
    <!-- n -->
    <g transform="translate(244.375463 177.83925) scale(0.12 -0.12)">
     <defs>
      <path id="DejaVuSans-Bold-6e" d="M 4056 2131 
L 4056 0 
L 2931 0 
L 2931 347 
L 2931 1631 
Q 2931 2084 2911 2256 
Q 2891 2428 2841 2509 
Q 2775 2619 2662 2680 
Q 2550 2741 2406 2741 
Q 2056 2741 1856 2470 
Q 1656 2200 1656 1722 
L 1656 0 
L 538 0 
L 538 3500 
L 1656 3500 
L 1656 2988 
Q 1909 3294 2193 3439 
Q 2478 3584 2822 3584 
Q 3428 3584 3742 3212 
Q 4056 2841 4056 2131 
z
" transform="scale(0.015625)"/>
     </defs>
     <use xlink:href="#DejaVuSans-Bold-6e"/>
    </g>
   </g>
   <g id="text_20">
    <!-- lsft -->
    <g transform="translate(79.376053 211.137152) scale(0.12 -0.12)">
     <defs>
      <path id="DejaVuSans-Bold-66" d="M 2841 4863 
L 2841 4128 
L 2222 4128 
Q 1984 4128 1890 4042 
Q 1797 3956 1797 3744 
L 1797 3500 
L 2753 3500 
L 2753 2700 
L 1797 2700 
L 1797 0 
L 678 0 
L 678 2700 
L 122 2700 
L 122 3500 
L 678 3500 
L 678 3744 
Q 678 4316 997 4589 
Q 1316 4863 1984 4863 
L 2841 4863 
z
" transform="scale(0.015625)"/>
      <path id="DejaVuSans-Bold-74" d="M 1759 4494 
L 1759 3500 
L 2913 3500 
L 2913 2700 
L 1759 2700 
L 1759 1216 
Q 1759 972 1856 886 
Q 1953 800 2241 800 
L 2816 800 
L 2816 0 
L 1856 0 
Q 1194 0 917 276 
Q 641 553 641 1216 
L 641 2700 
L 84 2700 
L 84 3500 
L 641 3500 
L 641 4494 
L 1759 4494 
z
" transform="scale(0.015625)"/>
     </defs>
     <use xlink:href="#DejaVuSans-Bold-6c"/>
     <use xlink:href="#DejaVuSans-Bold-73" transform="translate(34.277344 0)"/>
     <use xlink:href="#DejaVuSans-Bold-66" transform="translate(93.798828 0)"/>
     <use xlink:href="#DejaVuSans-Bold-74" transform="translate(137.304688 0)"/>
    </g>
   </g>
   <g id="text_21">
    <!-- v -->
    <g transform="translate(136.517281 144.541348) scale(0.12 -0.12)">
     <defs>
      <path id="DejaVuSans-Bold-76" d="M 97 3500 
L 1216 3500 
L 2088 1081 
L 2956 3500 
L 4078 3500 
L 2700 0 
L 1472 0 
L 97 3500 
z
" transform="scale(0.015625)"/>
     </defs>
     <use xlink:href="#DejaVuSans-Bold-76"/>
    </g>
   </g>
   <g id="text_22">
    <!-- b -->
    <g transform="translate(236.02755 144.541348) scale(0.12 -0.12)">
     <defs>
      <path id="DejaVuSans-Bold-62" d="M 2400 722 
Q 2759 722 2948 984 
Q 3138 1247 3138 1747 
Q 3138 2247 2948 2509 
Q 2759 2772 2400 2772 
Q 2041 2772 1848 2508 
Q 1656 2244 1656 1747 
Q 1656 1250 1848 986 
Q 2041 722 2400 722 
z
M 1656 2988 
Q 1888 3294 2169 3439 
Q 2450 3584 2816 3584 
Q 3463 3584 3878 3070 
Q 4294 2556 4294 1747 
Q 4294 938 3878 423 
Q 3463 -91 2816 -91 
Q 2450 -91 2169 54 
Q 1888 200 1656 506 
L 1656 0 
L 538 0 
L 538 4863 
L 1656 4863 
L 1656 2988 
z
" transform="scale(0.015625)"/>
     </defs>
     <use xlink:href="#DejaVuSans-Bold-62"/>
    </g>
   </g>
   <g id="text_23">
    <!-- r -->
    <g transform="translate(179.092159 177.83925) scale(0.12 -0.12)">
     <defs>
      <path id="DejaVuSans-Bold-72" d="M 3138 2547 
Q 2991 2616 2845 2648 
Q 2700 2681 2553 2681 
Q 2122 2681 1889 2404 
Q 1656 2128 1656 1613 
L 1656 0 
L 538 0 
L 538 3500 
L 1656 3500 
L 1656 2925 
Q 1872 3269 2151 3426 
Q 2431 3584 2822 3584 
Q 2878 3584 2943 3579 
Q 3009 3575 3134 3559 
L 3138 2547 
z
" transform="scale(0.015625)"/>
     </defs>
     <use xlink:href="#DejaVuSans-Bold-72"/>
    </g>
   </g>
   <g id="text_24">
    <!-- spc -->
    <g transform="translate(253.873164 244.435054) scale(0.12 -0.12)">
     <defs>
      <path id="DejaVuSans-Bold-70" d="M 1656 506 
L 1656 -1331 
L 538 -1331 
L 538 3500 
L 1656 3500 
L 1656 2988 
Q 1888 3294 2169 3439 
Q 2450 3584 2816 3584 
Q 3463 3584 3878 3070 
Q 4294 2556 4294 1747 
Q 4294 938 3878 423 
Q 3463 -91 2816 -91 
Q 2450 -91 2169 54 
Q 1888 200 1656 506 
z
M 2400 2772 
Q 2041 2772 1848 2508 
Q 1656 2244 1656 1747 
Q 1656 1250 1848 986 
Q 2041 722 2400 722 
Q 2759 722 2948 984 
Q 3138 1247 3138 1747 
Q 3138 2247 2948 2509 
Q 2759 2772 2400 2772 
z
" transform="scale(0.015625)"/>
      <path id="DejaVuSans-Bold-63" d="M 3366 3391 
L 3366 2478 
Q 3138 2634 2908 2709 
Q 2678 2784 2431 2784 
Q 1963 2784 1702 2511 
Q 1441 2238 1441 1747 
Q 1441 1256 1702 982 
Q 1963 709 2431 709 
Q 2694 709 2930 787 
Q 3166 866 3366 1019 
L 3366 103 
Q 3103 6 2833 -42 
Q 2563 -91 2291 -91 
Q 1344 -91 809 395 
Q 275 881 275 1747 
Q 275 2613 809 3098 
Q 1344 3584 2291 3584 
Q 2566 3584 2833 3536 
Q 3100 3488 3366 3391 
z
" transform="scale(0.015625)"/>
     </defs>
     <use xlink:href="#DejaVuSans-Bold-73"/>
     <use xlink:href="#DejaVuSans-Bold-70" transform="translate(59.521484 0)"/>
     <use xlink:href="#DejaVuSans-Bold-63" transform="translate(131.103516 0)"/>
    </g>
   </g>
   <g id="text_25">
    <!-- h -->
    <g transform="translate(169.455184 144.541348) scale(0.12 -0.12)">
     <use xlink:href="#DejaVuSans-Bold-68"/>
    </g>
   </g>
   <g id="text_26">
    <!-- FC: 1.01, MC: 107.41, UCC: 414.1, RC: -157.91, DC: 118.29 -->
    <g transform="translate(58.934063 76.958769) scale(0.12 -0.12)">
     <defs>
      <path id="DejaVuSans-46" d="M 628 4666 
L 3309 4666 
L 3309 4134 
L 1259 4134 
L 1259 2759 
L 3109 2759 
L 3109 2228 
L 1259 2228 
L 1259 0 
L 628 0 
L 628 4666 
z
" transform="scale(0.015625)"/>
      <path id="DejaVuSans-43" d="M 4122 4306 
L 4122 3641 
Q 3803 3938 3442 4084 
Q 3081 4231 2675 4231 
Q 1875 4231 1450 3742 
Q 1025 3253 1025 2328 
Q 1025 1406 1450 917 
Q 1875 428 2675 428 
Q 3081 428 3442 575 
Q 3803 722 4122 1019 
L 4122 359 
Q 3791 134 3420 21 
Q 3050 -91 2638 -91 
Q 1578 -91 968 557 
Q 359 1206 359 2328 
Q 359 3453 968 4101 
Q 1578 4750 2638 4750 
Q 3056 4750 3426 4639 
Q 3797 4528 4122 4306 
z
" transform="scale(0.015625)"/>
      <path id="DejaVuSans-3a" d="M 750 794 
L 1409 794 
L 1409 0 
L 750 0 
L 750 794 
z
M 750 3309 
L 1409 3309 
L 1409 2516 
L 750 2516 
L 750 3309 
z
" transform="scale(0.015625)"/>
      <path id="DejaVuSans-20" transform="scale(0.015625)"/>
      <path id="DejaVuSans-2e" d="M 684 794 
L 1344 794 
L 1344 0 
L 684 0 
L 684 794 
z
" transform="scale(0.015625)"/>
      <path id="DejaVuSans-2c" d="M 750 794 
L 1409 794 
L 1409 256 
L 897 -744 
L 494 -744 
L 750 256 
L 750 794 
z
" transform="scale(0.015625)"/>
      <path id="DejaVuSans-4d" d="M 628 4666 
L 1569 4666 
L 2759 1491 
L 3956 4666 
L 4897 4666 
L 4897 0 
L 4281 0 
L 4281 4097 
L 3078 897 
L 2444 897 
L 1241 4097 
L 1241 0 
L 628 0 
L 628 4666 
z
" transform="scale(0.015625)"/>
      <path id="DejaVuSans-37" d="M 525 4666 
L 3525 4666 
L 3525 4397 
L 1831 0 
L 1172 0 
L 2766 4134 
L 525 4134 
L 525 4666 
z
" transform="scale(0.015625)"/>
      <path id="DejaVuSans-55" d="M 556 4666 
L 1191 4666 
L 1191 1831 
Q 1191 1081 1462 751 
Q 1734 422 2344 422 
Q 2950 422 3222 751 
Q 3494 1081 3494 1831 
L 3494 4666 
L 4128 4666 
L 4128 1753 
Q 4128 841 3676 375 
Q 3225 -91 2344 -91 
Q 1459 -91 1007 375 
Q 556 841 556 1753 
L 556 4666 
z
" transform="scale(0.015625)"/>
      <path id="DejaVuSans-52" d="M 2841 2188 
Q 3044 2119 3236 1894 
Q 3428 1669 3622 1275 
L 4263 0 
L 3584 0 
L 2988 1197 
Q 2756 1666 2539 1819 
Q 2322 1972 1947 1972 
L 1259 1972 
L 1259 0 
L 628 0 
L 628 4666 
L 2053 4666 
Q 2853 4666 3247 4331 
Q 3641 3997 3641 3322 
Q 3641 2881 3436 2590 
Q 3231 2300 2841 2188 
z
M 1259 4147 
L 1259 2491 
L 2053 2491 
Q 2509 2491 2742 2702 
Q 2975 2913 2975 3322 
Q 2975 3731 2742 3939 
Q 2509 4147 2053 4147 
L 1259 4147 
z
" transform="scale(0.015625)"/>
      <path id="DejaVuSans-2d" d="M 313 2009 
L 1997 2009 
L 1997 1497 
L 313 1497 
L 313 2009 
z
" transform="scale(0.015625)"/>
      <path id="DejaVuSans-39" d="M 703 97 
L 703 672 
Q 941 559 1184 500 
Q 1428 441 1663 441 
Q 2288 441 2617 861 
Q 2947 1281 2994 2138 
Q 2813 1869 2534 1725 
Q 2256 1581 1919 1581 
Q 1219 1581 811 2004 
Q 403 2428 403 3163 
Q 403 3881 828 4315 
Q 1253 4750 1959 4750 
Q 2769 4750 3195 4129 
Q 3622 3509 3622 2328 
Q 3622 1225 3098 567 
Q 2575 -91 1691 -91 
Q 1453 -91 1209 -44 
Q 966 3 703 97 
z
M 1959 2075 
Q 2384 2075 2632 2365 
Q 2881 2656 2881 3163 
Q 2881 3666 2632 3958 
Q 2384 4250 1959 4250 
Q 1534 4250 1286 3958 
Q 1038 3666 1038 3163 
Q 1038 2656 1286 2365 
Q 1534 2075 1959 2075 
z
" transform="scale(0.015625)"/>
      <path id="DejaVuSans-44" d="M 1259 4147 
L 1259 519 
L 2022 519 
Q 2988 519 3436 956 
Q 3884 1394 3884 2338 
Q 3884 3275 3436 3711 
Q 2988 4147 2022 4147 
L 1259 4147 
z
M 628 4666 
L 1925 4666 
Q 3281 4666 3915 4102 
Q 4550 3538 4550 2338 
Q 4550 1131 3912 565 
Q 3275 0 1925 0 
L 628 0 
L 628 4666 
z
" transform="scale(0.015625)"/>
     </defs>
     <use xlink:href="#DejaVuSans-46"/>
     <use xlink:href="#DejaVuSans-43" transform="translate(57.519531 0)"/>
     <use xlink:href="#DejaVuSans-3a" transform="translate(127.34375 0)"/>
     <use xlink:href="#DejaVuSans-20" transform="translate(161.035156 0)"/>
     <use xlink:href="#DejaVuSans-31" transform="translate(192.822266 0)"/>
     <use xlink:href="#DejaVuSans-2e" transform="translate(256.445312 0)"/>
     <use xlink:href="#DejaVuSans-30" transform="translate(288.232422 0)"/>
     <use xlink:href="#DejaVuSans-31" transform="translate(351.855469 0)"/>
     <use xlink:href="#DejaVuSans-2c" transform="translate(415.478516 0)"/>
     <use xlink:href="#DejaVuSans-20" transform="translate(447.265625 0)"/>
     <use xlink:href="#DejaVuSans-4d" transform="translate(479.052734 0)"/>
     <use xlink:href="#DejaVuSans-43" transform="translate(565.332031 0)"/>
     <use xlink:href="#DejaVuSans-3a" transform="translate(635.15625 0)"/>
     <use xlink:href="#DejaVuSans-20" transform="translate(668.847656 0)"/>
     <use xlink:href="#DejaVuSans-31" transform="translate(700.634766 0)"/>
     <use xlink:href="#DejaVuSans-30" transform="translate(764.257812 0)"/>
     <use xlink:href="#DejaVuSans-37" transform="translate(827.880859 0)"/>
     <use xlink:href="#DejaVuSans-2e" transform="translate(891.503906 0)"/>
     <use xlink:href="#DejaVuSans-34" transform="translate(923.291016 0)"/>
     <use xlink:href="#DejaVuSans-31" transform="translate(986.914062 0)"/>
     <use xlink:href="#DejaVuSans-2c" transform="translate(1050.537109 0)"/>
     <use xlink:href="#DejaVuSans-20" transform="translate(1082.324219 0)"/>
     <use xlink:href="#DejaVuSans-55" transform="translate(1114.111328 0)"/>
     <use xlink:href="#DejaVuSans-43" transform="translate(1187.304688 0)"/>
     <use xlink:href="#DejaVuSans-43" transform="translate(1257.128906 0)"/>
     <use xlink:href="#DejaVuSans-3a" transform="translate(1326.953125 0)"/>
     <use xlink:href="#DejaVuSans-20" transform="translate(1360.644531 0)"/>
     <use xlink:href="#DejaVuSans-34" transform="translate(1392.431641 0)"/>
     <use xlink:href="#DejaVuSans-31" transform="translate(1456.054688 0)"/>
     <use xlink:href="#DejaVuSans-34" transform="translate(1519.677734 0)"/>
     <use xlink:href="#DejaVuSans-2e" transform="translate(1583.300781 0)"/>
     <use xlink:href="#DejaVuSans-31" transform="translate(1615.087891 0)"/>
     <use xlink:href="#DejaVuSans-2c" transform="translate(1678.710938 0)"/>
     <use xlink:href="#DejaVuSans-20" transform="translate(1710.498047 0)"/>
     <use xlink:href="#DejaVuSans-52" transform="translate(1742.285156 0)"/>
     <use xlink:href="#DejaVuSans-43" transform="translate(1806.767578 0)"/>
     <use xlink:href="#DejaVuSans-3a" transform="translate(1876.591797 0)"/>
     <use xlink:href="#DejaVuSans-20" transform="translate(1910.283203 0)"/>
     <use xlink:href="#DejaVuSans-2d" transform="translate(1942.070312 0)"/>
     <use xlink:href="#DejaVuSans-31" transform="translate(1978.154297 0)"/>
     <use xlink:href="#DejaVuSans-35" transform="translate(2041.777344 0)"/>
     <use xlink:href="#DejaVuSans-37" transform="translate(2105.400391 0)"/>
     <use xlink:href="#DejaVuSans-2e" transform="translate(2169.023438 0)"/>
     <use xlink:href="#DejaVuSans-39" transform="translate(2200.810547 0)"/>
     <use xlink:href="#DejaVuSans-31" transform="translate(2264.433594 0)"/>
     <use xlink:href="#DejaVuSans-2c" transform="translate(2328.056641 0)"/>
     <use xlink:href="#DejaVuSans-20" transform="translate(2359.84375 0)"/>
     <use xlink:href="#DejaVuSans-44" transform="translate(2391.630859 0)"/>
     <use xlink:href="#DejaVuSans-43" transform="translate(2468.632812 0)"/>
     <use xlink:href="#DejaVuSans-3a" transform="translate(2538.457031 0)"/>
     <use xlink:href="#DejaVuSans-20" transform="translate(2572.148438 0)"/>
     <use xlink:href="#DejaVuSans-31" transform="translate(2603.935547 0)"/>
     <use xlink:href="#DejaVuSans-31" transform="translate(2667.558594 0)"/>
     <use xlink:href="#DejaVuSans-38" transform="translate(2731.181641 0)"/>
     <use xlink:href="#DejaVuSans-2e" transform="translate(2794.804688 0)"/>
     <use xlink:href="#DejaVuSans-32" transform="translate(2826.591797 0)"/>
     <use xlink:href="#DejaVuSans-39" transform="translate(2890.214844 0)"/>
    </g>
   </g>
  </g>
 </g>
 <defs>
  <clipPath id="p6ae9a5de25">
   <rect x="57.6" y="82.958769" width="357.12" height="183.138462"/>
  </clipPath>
 </defs>
</svg>
